<mxfile host="app.diagrams.net" modified="2021-05-12T14:59:27.845Z" agent="5.0 (Macintosh; Intel Mac OS X 10_14_6) AppleWebKit/537.36 (KHTML, like Gecko) Chrome/90.0.4430.93 Safari/537.36" etag="2pHwHsdRqcHTzFs6TFBr" version="14.6.11" type="github">
  <diagram id="lHUfotGmLh88hEkfxTwz" name="第 1 页">
    <mxGraphModel dx="946" dy="590" grid="1" gridSize="10" guides="1" tooltips="1" connect="1" arrows="1" fold="1" page="1" pageScale="1" pageWidth="827" pageHeight="1169" math="0" shadow="0">
      <root>
        <mxCell id="0" />
        <mxCell id="1" parent="0" />
        <mxCell id="5d9FrAUT32Lfvnw-ttjD-56" style="edgeStyle=orthogonalEdgeStyle;curved=1;rounded=0;orthogonalLoop=1;jettySize=auto;html=1;exitX=1;exitY=0.5;exitDx=0;exitDy=0;entryX=1;entryY=0.5;entryDx=0;entryDy=0;" edge="1" parent="1" source="5d9FrAUT32Lfvnw-ttjD-46" target="5d9FrAUT32Lfvnw-ttjD-57">
          <mxGeometry relative="1" as="geometry">
            <mxPoint x="1800" y="1760" as="targetPoint" />
          </mxGeometry>
        </mxCell>
        <mxCell id="5d9FrAUT32Lfvnw-ttjD-46" value="" style="rounded=1;whiteSpace=wrap;html=1;strokeWidth=1;dashed=1;fillColor=#f8cecc;strokeColor=#b85450;" vertex="1" parent="1">
          <mxGeometry x="1561.66" y="1292.5" width="146.68" height="337.5" as="geometry" />
        </mxCell>
        <mxCell id="5d9FrAUT32Lfvnw-ttjD-60" style="edgeStyle=orthogonalEdgeStyle;curved=1;rounded=0;orthogonalLoop=1;jettySize=auto;html=1;exitX=0;exitY=0.75;exitDx=0;exitDy=0;entryX=1;entryY=0.5;entryDx=0;entryDy=0;dashed=1;" edge="1" parent="1" source="5d9FrAUT32Lfvnw-ttjD-26" target="5d9FrAUT32Lfvnw-ttjD-62">
          <mxGeometry relative="1" as="geometry">
            <mxPoint x="810" y="1720" as="targetPoint" />
          </mxGeometry>
        </mxCell>
        <mxCell id="5d9FrAUT32Lfvnw-ttjD-26" value="" style="rounded=1;whiteSpace=wrap;html=1;strokeWidth=1;dashed=1;fillColor=#f8cecc;strokeColor=#b85450;" vertex="1" parent="1">
          <mxGeometry x="943.32" y="1292.5" width="146.68" height="337.5" as="geometry" />
        </mxCell>
        <mxCell id="y3kybt45RYq4H4rWvZ21-79" value="" style="rounded=1;whiteSpace=wrap;html=1;strokeWidth=1;dashed=1;strokeColor=#b85450;fillColor=#f8cecc;" parent="1" vertex="1">
          <mxGeometry x="990.27" y="662" width="120.95" height="70" as="geometry" />
        </mxCell>
        <mxCell id="y3kybt45RYq4H4rWvZ21-78" value="" style="rounded=1;whiteSpace=wrap;html=1;strokeWidth=1;dashed=1;strokeColor=#b85450;fillColor=#f8cecc;" parent="1" vertex="1">
          <mxGeometry x="989.05" y="460" width="120.95" height="70" as="geometry" />
        </mxCell>
        <mxCell id="y3kybt45RYq4H4rWvZ21-1" value="" style="rounded=1;whiteSpace=wrap;html=1;fillColor=none;dashed=1;" parent="1" vertex="1">
          <mxGeometry x="1260" y="1280" width="260" height="390" as="geometry" />
        </mxCell>
        <mxCell id="y3kybt45RYq4H4rWvZ21-2" value="1. 整体是读多写少的场景，基本80%的请求是查询请求，20%的请求时写请求" style="text;html=1;strokeColor=none;fillColor=none;align=center;verticalAlign=middle;whiteSpace=wrap;rounded=0;" parent="1" vertex="1">
          <mxGeometry x="420" y="160" width="630" height="30" as="geometry" />
        </mxCell>
        <mxCell id="y3kybt45RYq4H4rWvZ21-3" value="&lt;strong style=&quot;color: rgb(0 , 0 , 0) ; font-family: &amp;#34;pingfang sc&amp;#34; , &amp;#34;microsoft yahei&amp;#34; , &amp;#34;helvetica neue&amp;#34; , &amp;#34;helvetica&amp;#34; , &amp;#34;arial&amp;#34; , sans-serif ; font-size: 14px ; font-style: normal ; letter-spacing: normal ; text-indent: 0px ; text-transform: none ; word-spacing: 0px ; background-color: rgb(255 , 255 , 255)&quot;&gt;因为首先它是一个查多写少、但是写的业务逻辑非常复杂的系统。所以，非常适合做架构层面的读写分离，即采用CQRS + ES架构。&lt;/strong&gt;&lt;span style=&quot;color: rgb(0 , 0 , 0) ; font-family: &amp;#34;pingfang sc&amp;#34; , &amp;#34;microsoft yahei&amp;#34; , &amp;#34;helvetica neue&amp;#34; , &amp;#34;helvetica&amp;#34; , &amp;#34;arial&amp;#34; , sans-serif ; font-size: 14px ; font-style: normal ; font-weight: 400 ; letter-spacing: normal ; text-indent: 0px ; text-transform: none ; word-spacing: 0px ; background-color: rgb(255 , 255 , 255) ; display: inline ; float: none&quot;&gt;而且应该使用数据存储也分离的CQRS。这样CQ两端才可以完全不需要顾及对方的问题，各自优化自己的问题即可。我们可以在C端使用DDD领域模型的思路，用良好设计的领域模型实现复杂的业务规则和业务逻辑。而Q端则使用分布式缓存方案，实现可伸缩的查询能力。&lt;/span&gt;" style="text;whiteSpace=wrap;html=1;" parent="1" vertex="1">
          <mxGeometry x="539" y="190" width="550" height="90" as="geometry" />
        </mxCell>
        <mxCell id="y3kybt45RYq4H4rWvZ21-4" style="edgeStyle=orthogonalEdgeStyle;rounded=0;orthogonalLoop=1;jettySize=auto;html=1;entryX=0;entryY=0.5;entryDx=0;entryDy=0;curved=1;" parent="1" source="y3kybt45RYq4H4rWvZ21-5" target="y3kybt45RYq4H4rWvZ21-8" edge="1">
          <mxGeometry relative="1" as="geometry">
            <mxPoint x="620" y="400" as="targetPoint" />
          </mxGeometry>
        </mxCell>
        <mxCell id="y3kybt45RYq4H4rWvZ21-5" value="12306 工作人员" style="shape=umlActor;verticalLabelPosition=bottom;verticalAlign=top;html=1;outlineConnect=0;" parent="1" vertex="1">
          <mxGeometry x="500" y="330" width="30" height="75" as="geometry" />
        </mxCell>
        <mxCell id="y3kybt45RYq4H4rWvZ21-7" style="edgeStyle=orthogonalEdgeStyle;curved=1;rounded=0;orthogonalLoop=1;jettySize=auto;html=1;exitX=0.5;exitY=1;exitDx=0;exitDy=0;" parent="1" source="y3kybt45RYq4H4rWvZ21-8" target="y3kybt45RYq4H4rWvZ21-15" edge="1">
          <mxGeometry relative="1" as="geometry" />
        </mxCell>
        <mxCell id="y3kybt45RYq4H4rWvZ21-8" value="车次管理服务" style="rounded=1;whiteSpace=wrap;html=1;" parent="1" vertex="1">
          <mxGeometry x="706.9" y="360" width="90" height="30" as="geometry" />
        </mxCell>
        <mxCell id="y3kybt45RYq4H4rWvZ21-9" value="① 创建车次信息、座位信息" style="text;html=1;align=center;verticalAlign=middle;resizable=0;points=[];autosize=1;strokeColor=none;" parent="1" vertex="1">
          <mxGeometry x="555" y="340" width="160" height="20" as="geometry" />
        </mxCell>
        <mxCell id="y3kybt45RYq4H4rWvZ21-58" style="edgeStyle=orthogonalEdgeStyle;curved=1;rounded=0;orthogonalLoop=1;jettySize=auto;html=1;entryX=0;entryY=0.5;entryDx=0;entryDy=0;" parent="1" source="y3kybt45RYq4H4rWvZ21-10" target="y3kybt45RYq4H4rWvZ21-57" edge="1">
          <mxGeometry relative="1" as="geometry" />
        </mxCell>
        <mxCell id="y3kybt45RYq4H4rWvZ21-10" value="In Memory Domain" style="aspect=fixed;html=1;points=[];align=center;image;fontSize=12;image=img/lib/mscae/Cache_Redis_Product.svg;" parent="1" vertex="1">
          <mxGeometry x="1029.9999999999998" y="468.5" width="38.1" height="32" as="geometry" />
        </mxCell>
        <mxCell id="y3kybt45RYq4H4rWvZ21-11" value="执行Create Handler, 存储聚合根到内存" style="text;html=1;align=center;verticalAlign=middle;resizable=0;points=[];autosize=1;strokeColor=none;" parent="1" vertex="1">
          <mxGeometry x="880" y="420" width="220" height="20" as="geometry" />
        </mxCell>
        <mxCell id="y3kybt45RYq4H4rWvZ21-72" value="" style="edgeStyle=orthogonalEdgeStyle;curved=1;rounded=0;orthogonalLoop=1;jettySize=auto;html=1;dashed=1;" parent="1" source="y3kybt45RYq4H4rWvZ21-15" target="y3kybt45RYq4H4rWvZ21-18" edge="1">
          <mxGeometry relative="1" as="geometry" />
        </mxCell>
        <mxCell id="y3kybt45RYq4H4rWvZ21-15" value="Command Queue" style="outlineConnect=0;dashed=0;verticalLabelPosition=bottom;verticalAlign=top;align=center;html=1;shape=mxgraph.aws3.queue;fillColor=#D9A741;gradientColor=none;" parent="1" vertex="1">
          <mxGeometry x="700" y="470" width="50" height="29" as="geometry" />
        </mxCell>
        <mxCell id="y3kybt45RYq4H4rWvZ21-16" value="② 发送 Create Command" style="text;html=1;align=center;verticalAlign=middle;resizable=0;points=[];autosize=1;strokeColor=none;" parent="1" vertex="1">
          <mxGeometry x="577" y="420" width="150" height="20" as="geometry" />
        </mxCell>
        <mxCell id="y3kybt45RYq4H4rWvZ21-73" style="edgeStyle=orthogonalEdgeStyle;curved=1;rounded=0;orthogonalLoop=1;jettySize=auto;html=1;" parent="1" source="y3kybt45RYq4H4rWvZ21-18" target="y3kybt45RYq4H4rWvZ21-10" edge="1">
          <mxGeometry relative="1" as="geometry" />
        </mxCell>
        <mxCell id="y3kybt45RYq4H4rWvZ21-18" value="Command handler" style="outlineConnect=0;fontColor=#232F3E;gradientColor=none;fillColor=#BC1356;strokeColor=none;dashed=0;verticalLabelPosition=bottom;verticalAlign=top;align=center;html=1;fontSize=12;fontStyle=0;aspect=fixed;pointerEvents=1;shape=mxgraph.aws4.eventbridge_custom_event_bus_resource;" parent="1" vertex="1">
          <mxGeometry x="898.1" y="485" width="45.22" height="40" as="geometry" />
        </mxCell>
        <mxCell id="y3kybt45RYq4H4rWvZ21-19" value="Event Store" style="shape=image;html=1;verticalAlign=top;verticalLabelPosition=bottom;labelBackgroundColor=#ffffff;imageAspect=0;image=https://cdn4.iconfinder.com/data/icons/logos-3/512/mongodb-2-128.png" parent="1" vertex="1">
          <mxGeometry x="1360" y="330" width="110" height="40" as="geometry" />
        </mxCell>
        <mxCell id="y3kybt45RYq4H4rWvZ21-21" value="&lt;font style=&quot;font-size: 14px&quot;&gt;创建车次信息&lt;/font&gt;" style="dashed=0;html=1;fillColor=#F0F2F5;strokeColor=none;align=center;rounded=1;arcSize=10;fontColor=#3384FF;fontStyle=1;fontSize=11;shadow=0" parent="1" vertex="1">
          <mxGeometry x="360" y="410" width="60" height="20" as="geometry" />
        </mxCell>
        <mxCell id="y3kybt45RYq4H4rWvZ21-22" style="edgeStyle=orthogonalEdgeStyle;curved=1;rounded=0;orthogonalLoop=1;jettySize=auto;html=1;entryX=0;entryY=0.5;entryDx=0;entryDy=0;" parent="1" source="y3kybt45RYq4H4rWvZ21-23" target="y3kybt45RYq4H4rWvZ21-26" edge="1">
          <mxGeometry relative="1" as="geometry" />
        </mxCell>
        <mxCell id="y3kybt45RYq4H4rWvZ21-23" value="用户client" style="shape=umlActor;verticalLabelPosition=bottom;verticalAlign=top;html=1;outlineConnect=0;" parent="1" vertex="1">
          <mxGeometry x="500" y="650" width="30" height="60" as="geometry" />
        </mxCell>
        <mxCell id="y3kybt45RYq4H4rWvZ21-24" style="edgeStyle=orthogonalEdgeStyle;curved=1;rounded=0;orthogonalLoop=1;jettySize=auto;html=1;exitX=1;exitY=0.5;exitDx=0;exitDy=0;" parent="1" source="y3kybt45RYq4H4rWvZ21-26" target="y3kybt45RYq4H4rWvZ21-68" edge="1">
          <mxGeometry relative="1" as="geometry">
            <mxPoint x="1039.9325" y="683" as="targetPoint" />
          </mxGeometry>
        </mxCell>
        <mxCell id="y3kybt45RYq4H4rWvZ21-25" value="根据设定好的key, 在内存中查询" style="edgeLabel;html=1;align=center;verticalAlign=middle;resizable=0;points=[];" parent="y3kybt45RYq4H4rWvZ21-24" vertex="1" connectable="0">
          <mxGeometry x="-0.191" y="-1" relative="1" as="geometry">
            <mxPoint as="offset" />
          </mxGeometry>
        </mxCell>
        <mxCell id="y3kybt45RYq4H4rWvZ21-26" value="车次查询服务" style="rounded=1;whiteSpace=wrap;html=1;" parent="1" vertex="1">
          <mxGeometry x="718.03" y="630" width="90" height="30" as="geometry" />
        </mxCell>
        <mxCell id="y3kybt45RYq4H4rWvZ21-27" value="查询车次信息" style="text;html=1;align=center;verticalAlign=middle;resizable=0;points=[];autosize=1;strokeColor=none;" parent="1" vertex="1">
          <mxGeometry x="577.03" y="620" width="90" height="20" as="geometry" />
        </mxCell>
        <mxCell id="y3kybt45RYq4H4rWvZ21-29" value="&lt;font style=&quot;font-size: 14px&quot;&gt;用户查询车次信息&lt;/font&gt;" style="dashed=0;html=1;fillColor=#F0F2F5;strokeColor=none;align=center;rounded=1;arcSize=10;fontColor=#3384FF;fontStyle=1;fontSize=11;shadow=0" parent="1" vertex="1">
          <mxGeometry x="368.03" y="663" width="60" height="20" as="geometry" />
        </mxCell>
        <mxCell id="y3kybt45RYq4H4rWvZ21-30" style="edgeStyle=orthogonalEdgeStyle;curved=1;rounded=0;orthogonalLoop=1;jettySize=auto;html=1;entryX=0;entryY=0.5;entryDx=0;entryDy=0;" parent="1" source="y3kybt45RYq4H4rWvZ21-31" target="y3kybt45RYq4H4rWvZ21-35" edge="1">
          <mxGeometry relative="1" as="geometry" />
        </mxCell>
        <mxCell id="y3kybt45RYq4H4rWvZ21-31" value="用户client" style="shape=umlActor;verticalLabelPosition=bottom;verticalAlign=top;html=1;outlineConnect=0;" parent="1" vertex="1">
          <mxGeometry x="496.90000000000003" y="1335" width="30" height="60" as="geometry" />
        </mxCell>
        <mxCell id="5d9FrAUT32Lfvnw-ttjD-27" value="" style="edgeStyle=orthogonalEdgeStyle;curved=1;rounded=0;orthogonalLoop=1;jettySize=auto;html=1;" edge="1" parent="1" source="y3kybt45RYq4H4rWvZ21-35" target="5d9FrAUT32Lfvnw-ttjD-26">
          <mxGeometry relative="1" as="geometry" />
        </mxCell>
        <mxCell id="y3kybt45RYq4H4rWvZ21-35" value="订单服务" style="rounded=1;whiteSpace=wrap;html=1;" parent="1" vertex="1">
          <mxGeometry x="706.9" y="1325" width="90" height="30" as="geometry" />
        </mxCell>
        <mxCell id="y3kybt45RYq4H4rWvZ21-36" value="提交订单信息" style="text;html=1;align=center;verticalAlign=middle;resizable=0;points=[];autosize=1;strokeColor=none;" parent="1" vertex="1">
          <mxGeometry x="573.93" y="1320" width="90" height="20" as="geometry" />
        </mxCell>
        <mxCell id="y3kybt45RYq4H4rWvZ21-43" value="CreateOrderEvent" style="text;html=1;align=center;verticalAlign=middle;resizable=0;points=[];autosize=1;strokeColor=none;" parent="1" vertex="1">
          <mxGeometry x="827" y="1401.5" width="110" height="20" as="geometry" />
        </mxCell>
        <mxCell id="y3kybt45RYq4H4rWvZ21-44" style="edgeStyle=orthogonalEdgeStyle;curved=1;rounded=0;orthogonalLoop=1;jettySize=auto;html=1;entryX=1;entryY=1;entryDx=0;entryDy=0;entryPerimeter=0;exitX=0.869;exitY=1.161;exitDx=0;exitDy=0;exitPerimeter=0;" parent="1" source="y3kybt45RYq4H4rWvZ21-35" target="y3kybt45RYq4H4rWvZ21-31" edge="1">
          <mxGeometry relative="1" as="geometry">
            <Array as="points">
              <mxPoint x="784.9" y="1530" />
              <mxPoint x="596.9" y="1530" />
              <mxPoint x="596.9" y="1395" />
            </Array>
            <mxPoint x="706.9" y="1529.9411764705883" as="sourcePoint" />
          </mxGeometry>
        </mxCell>
        <mxCell id="y3kybt45RYq4H4rWvZ21-46" value="返回正在处理中" style="text;html=1;align=center;verticalAlign=middle;resizable=0;points=[];autosize=1;strokeColor=none;" parent="1" vertex="1">
          <mxGeometry x="634.4" y="1495" width="100" height="20" as="geometry" />
        </mxCell>
        <mxCell id="y3kybt45RYq4H4rWvZ21-48" value="" style="shape=image;verticalLabelPosition=bottom;labelBackgroundColor=#ffffff;verticalAlign=top;aspect=fixed;imageAspect=0;image=data:image/png,iVBORw0KGgoAAAANSUhEUgAAASwAAAFKCAYAAACn0GIyAAAgAElEQVR4AezdB7hGRXUvfNO7KRpjCYK9RlFBsYAl2GJviIKAqCiiAlZsSEQiKljQCPaOBVCxANYoFgRb7A3FAtZEE5Pcm5tb9n1+833/c4fX/ZZ9zrtP4cx+nnln79mzZ9asmfV/16xpl+ra1TjQONA4sEU4cKktQmcjs3GgcaBxoGuA1RpB40DjwJbhQAOsLVNVjdDGgcaBBlitDTQONA5sGQ40wNoyVdUIbRxoHGiAtUXbwP/5P/+nm+ZSpLz3XN/Xz//7f//v7n/9r/+18l68djUObFYONMDarDUzh67/+T//Z/c//sf/uBjYAJ8Ak3tx+C7h7uvnxK194NWuxoHNyoEGWJu1ZubQFQACSkAmAJX7GoQk5X3C6jjeJa28n5N1e904sGEcaIC1YaxfW8YBID4AAlz//u//3v34xz/uvv3tb3df+cpXus9+9rPdWWed1b31rW/tzjzzzO4zn/lM99WvfrU7//zzS7xf/vKXKxpa0lsbVe3rxoFxOdAAa1z+jpY6kPq3f/u37gc/+EF33nnndW9729u65zznOd2DH/zg7g53uEN3/etfv7v61a/eXeUqVylup5126q5xjWt0N7jBDbq//uu/7g466KAS33fnnntu973vfa/713/91wJ8NK12NQ5sRg40wNqMtTKFJkACqP77f//v3T/90z8VremQQw7pdtttt+6yl71s9xu/8Rvdr/3ar3WXutSlVpznhPN//dd/vcQR/pu/+Zvlu5vf/ObdwQcf3L3jHe8omtd/+2//reQzhYwW3DiwYRxogLVhrP/VjHXLON07V2xL6a4Bkosuuqh7/etf39361rfu/vzP/7z7oz/6o+53fud3CijVQLXIPfACWr//+7/fXfrSl+4uf/nLd7e97W27U089tbvgggsu1l0ElC5+6KmN+uVl+2kcGJkDDbBGZvCQ5AEUEDD6BxSAQzSqn/zkJ90ZZ5zR7b///t3Vrna1AlQAZxFgmhaHlhUnrd/6rd/q/vAP/7DbcccduwMPPLB797vf3f3zP/9z0egCogGsAGvrPg6p4RZ3rRxogLVWDi7xe2CQbl/A6he/+EXppr34xS/urn3taxdAoRUBmkkg6gubjDP57Btgxf32b/920dSkT3O76lWv2r3gBS/ovvWtbxWDPpCKdhU6G2AtsQG0pOZyoAHWXBatXwRg8F//9V/df/7nf674X/jCF7r99tuv+9M//dPSfQu4rAac+sBKOgGtSf93f/d3C3Ax5DPsA1GaFhoBVcBr/TjUctruHGiAtYlaAABIl9CI3dlnn93d+c537v7sz/6saD8BF/4k+KzmGfglTVpVjPO5j22MQd/I43vf+96OxhdNsGlXm6jxbBNSGmBtYEXXAu+e5sJ+BRQ++tGPFsO6rlmAhT8JTAGcyfBFn32f9JMWP+CVkUV0mA7xgQ98oEx/AK5Nw9rAxrNNs26AtQEVD5w4Ak9bifDzjQSa3EmjMXIHPBYFnzHjoYPGdbvb3a77yEc+UsC1AdYGNJ5tnmUDrA1oAHWXShcwAMZ29Y1vfKO7+93v3v3xH/9xmW6wmQDLKOKf/MmfdPe5z326r3/968XWhvZ2NQ6sFwcaYK0XpyfyiYbFB2C6gz/84Q+7pz3tad3lLne5jsFbd4wbU3NaNG3ACbDQc6UrXanQaRlQpjtMFK89Ng6MwoEGWKOwdX6i6QYCK3YrXcG3v/3t3XWve91iYK/tSouCypjxAFamUwCuK17xit0pp5xSlgfNL22L0TiwHA40wFoOHwelEttPfID1ne98p9t9993LPCtaTEbq+gztYwLTtLQBFlrQBbBogGbbW1DdrsaB9eJAA6z14nSVT2xWAayf/exn3fHHH1/W9dWa1SywAmoBED4njPuDP/iDsszG4udddtmlu/3tb9/d9KY3LRNBr3CFK3S/93u/V+L5JpoTEHI/DbCEB7T48jHd4rnPfe7KqGFtm6uK224bB5bGgQZYS2Pl4gmlOwi42K4+//nPlzV8gGQWYNTvgIb4QMdyGiBlcqkdGe53v/t1L33pS7tPfOIT3de+9rXiGMk//elPF2Bk1Nf1vMxlLlO6n5lvZU2h9Op85t3f5ja3KQMFBgwCwMrVrsaBMTjQAGsMrs5JMxoWn+3q1a9+9eARQYDFWU7D32GHHbpHP/rR3ec+97nOPleAMCBC82EcByh8eZ5zzjndYx/72GLgB1Lpgi6iadUgZoDg2GOPLXa45CG/djUOjMGBBlhjcHVOmtGwAMr3v//9bu+9914xaNdgMOseyARo7H1lkz5p2cQvXTO+vICX+4QDlv/4j//oLrzwwu79739/d6Mb3ahMo6BpsU0BwFl51+9oZX/1V39VRjjlHS1rDgva68aBVXGgAdaq2La2jwJYgMOOoLpxQ7tiQEVX0F5WdlX46U9/WrQnWlvSB1TyCHDlXTQh7y0BsgsEg7+5X7qZQwBL3Ctf+colDRsKSls+7WocGIMDDbDG4OqcNAk0sOA/8YlPLJMxh4AEDUfXLUDBaE9bA0w1QAWoAmDIkmetafnOKKXN+9i1MnWh1qJm3TO+25frqU99atlVQtpcuxoHxuBAA6wxuDonTaABRHTLrM+bZzcCCjWgebbZnhE6YAVwuIDgnOxXXqOBVsSXzkknnVSWA9X55b7OvwYw4Wa/3/Oe9+y++c1vNrBa4W67GYMDDbDG4OoCaQIYB0XsvPPOBYwAQw0E9X26i8BBPO6ud71rWR5ju2RAFa1pgaxXokTb8q00bGVjDWNGC+UXW9kswDJCeb3rXa+MQjbtaoW97WYEDjTAGoGp85Kk0TBQ267lWte6VgGsaYAAuPKOr8sGUGzoRzsCWNIDPtyQK9/4nrPU5kUvelGZXwUUgZU8k38Norn3zkgl+9eHPvShFVqG0NHiNg4syoEGWItyaonxgMO//Mu/dK961auKHSoaVEBg0g9oBByuec1rdu95z3uKVkWjid1qtdpNACs7RVgrCLAAEVrczwKtaGHvfOc7i6a2RFa1pBoHLsaBBlgXY8f6PdjzyvbDf/EXf7GiyUwCVZ5rTce0A5M1v/SlLxVtRlcO4KRbtxotK6OG0gCku+66awErtrV5gBXa+K985SuL5rh+XGw5bTcONMDaoBp3TNdxxx1XJm7SYAJOkz7NJiN37nUHzWR3HqERPgAFaOIPKU6+AXi5NxCw1157lS5eNCv5TtOwEgeNL3zhC8ukVWm1q3FgDA40wBqDqwuk+fOf/7yM8pkSMAsQvAugubfz55Oe9KTOKTprvQBLraEBLt3Cxz3uccWOJT9AlC7fJJh6Du1ofPrTn17OS6SxtatxYAwONMAag6tz0qQRBbB0CSP0fYCQsMQxheBRj3pUMZDPyWah10ArNjCARcN6zGMeU9YlyhtgRYsKLbWPrkzLAFi6utJpV+PAGBxogDUGV+ekCSQmAYsWUwNBfR+w4ptCcP/73790CedkM/c1Ori6S2j00o6iZtHLD13zAEscoHXCCScUG5g029U4MAYHGmCNwdUF0gRYbD4mgAaQapCq7/MeMFjvF6P7AtnMjRLAAlo0LVMlrC0EQOmKyhcNNU31vffcK17ximJ0b4A1l+0twio50ABrlYxby2cE2onKb3jDG8ouC7Xw991H0wEKgGSnnXYq6wfXQkO+BVS6qBz71bnnnlu2QJaX7iB63E8DrNAm7mmnnVZsYg2wwt3mL5sDDbCWzdEF0gMSNJn3ve993XWuc52VrlcfWAkDCnHAw0jhMcccszIil1HCoUAhfgDLzHsTR5/5zGeWpTYBquQ/izZgRVP88Ic/vGIPW4ANS49Sl99933PKvPTMW4LrwoEGWOvC5otnQmgAxPnnn9/d5CY3WbETTQOFvnBrEG3Ol2U5jOW1gF48x/6ndAPRwtnu+Fa3ulXZYqYvz74wQGpu2I1vfOPyfcCzP8dxQ1N+fu7l6D5a5OS7cSlqqS+bAw2wls3RBdKLALEZ3fGOd7yYvagPFPrCjBaafsBInp0aANDQK7SwqT372c8uNjIg1JdnX5i4plrc61736r71rW8VjW01dAylezJ+gEjeXJ75ufrC8q75W4MDDbA2oJ4iOLSao446qmxVPAQkAIdlM2xZlveYhGpN4dD5TwQbDUDvNa95TdmXS/duCC3imkv2t3/7t2VuWABjvdkansqfNsXHD24jtb715sMlPb8GWBtUwwSMMDlF2T5UGZHr02L6wsQ3xcGInt1Gf/SjHxXwke6iF7Cy8d/b3va27oY3vGGxXWVOVV+efWFsale5ylW6f/iHfyjAp0xDaFiU1kXiBazQQOsE4gYSlNO7gNpG0bdIGVqc2RxogDWbP6O8rQXHEpuHPOQhK8tv+kChL4xmw3bkHbDRnaNpEc5ZGoW8CS/bFyP785///GL4t9Mo7WooYKHBrqfWIGbW/HoBQrQoZQZOBjLsZ28E1gna9rdnl7NPl/2+2PkAGH8en0ap+JbomjnQAGvNLByeAIEmMHxC9sY3vrHYgQAGZxQQEM2bTpDdFNiQHN9173vfu2zxAgSlT9OI1sHnCOxFF11UtrYRX3dOOvKS57TuoPB0F/k0PM7ODq973etKugEQ/jKu0CytdPPwzL2yAWgDD3ZLdWK28tBW//Iv/7Ic9GrkksMbh3QA9gc+8IFlhNVuF04SkkYAXn7STzmS1zLK0tJYDgcaYC2Hj4NSIQgRDMLyj//4j93tbne7MruchhMtB4gESCa1rACIcPGBjmO+bD3jUIujjz66nMZz6qmnlvlRp59+erFTsZkRWgdHMNxPS39afkDKN/KklTky7Ktf/WoByFrgBzFkSuQAbvgFbAEMzcnuqJYQ3fa2ty22vMte9rKlixxQRSMexXnGI+AOxOyjb6TVwIU/jC9/+ctlWZH6CCDWwDWFxBa8zhxogLXODE92+fcmHOxPJ554Ytm5IRoWAQMOBG4SPPIc8BDHPRCJD0xoTzQLxvmrXe1q5VkXTvykn7TiT8tPONpq7Yrg20gQkChHysRfxhXAoi3qctKmbDBo6oWyBdhr2gJUypMyes+FN76zYsB7dkDluMtd7tKdfPLJZckTrTfTRZRtWeVZBk+2exoNsDagBfjnjiMMDMTsSU5opvUEiCJwAZPajxACkAipMPd5lo73EVB+hLxOa9H7pM2/9KUvXfZxt80zYAm4BLiWwdbwxsDAa1/72m6PPfYoWijQrcuNHmWtnbC6XOFXyhAA80344yTrO93pTt1b3vKW8ifSNKxl1OJy02iAtVx+LpQaQeQIN6HgMwR/8IMfLKN+hJFAxa8FL/cELwAV4UuY57yLgNbvEiZO0lvETxoA46pXvWqZ2U7zUYaUh+95rZd0HEH2sY99rNt3331LFy5d2NAfeqaV1Xs8BErhSeImPGkJB1zy0K0+7LDDSteTtqV+2rU5ONAAa4PqIRoJwXRPKNhnnITjNGXCQ5gIGzAhUJM+oRMn4YkT8PHMiRPfuzzX301+O/ku36OLod3SoGwlE4AKWOV5NayVhu4YXjgvkY1Ktw1Ihm60BIRSHj43GS5uaJ98l2fp1veeL3OZyxSN1777yqmO0Fa71ZSvfbM2DjTAWhv/lvo10DJb/PDDDy8jhQQnLtpWNIMI6Bg+AQdMhFh+XJ6Bx0Mf+tByyjRgIcBrvaQB5Dj2Kja9l770pcW2pPxjlLEvzZTbOzYudkCjjmxbQAtt6gh4ce1afw40wFp/nk/NkcAy8n77298u2yAb+aJZ5N+/1hbGFOTkI1/5GF1zT4DZeBi/CS96lwVY0pHmhRdeWLTMK17xiqXsaKnBZfK5frfWe2kDZ+kot3v8NzHWfvXRtIDWMso9tSG0F1M50ABrKmvW/wUh4NhubPNib3VdE4IT0AqIjCm4hJWLAAMs4Hm3u92tnF1ocqZrmRqWtEzuNOroRGtl7itjX9hagar+XrnD64CW8js/8s1vfvPKBNkGWOsvH3JsgLUxfO/NNf/chIG2AbQOPPDAciBEtJwavGpBW+Y9UAho6QIaPbML6ec///my/CZAFb+3MAMCaWpA8O1vf3s5kDVlXGaZFklLubn6TyFhtMtrX/va3dlnn10GSNDcrvXnQAOs9ef51BxjH8nuC0YO2bQcOkHrYFchzGMLdMCK3cos8Sc84Qndd77znTL9gqBylsIsS8uw+BoYmsxqYqfyyTsgAzRyP6afcvMDXNG20GTb6N1337371Kc+tbSyT20M7UUvBxpg9bJlYwIBFgcQgAFHmNm0LH9xjLyuGW2rFmL3EbJpAi0OEODPctIhpPK5xS1u0b3sZS8r+3YBqGgVoW01gFWXjeHaM5tY9pFXNsCMxmllSbg4AZSUf5qfMtfv6/ukmbA884XJB2266EccccTFdqYIP8KfjWk92yPXBlibvJ4Jg+4hbctCXl1E2paj4QNcBIoG4LkWtPqewAICghehrH3vGJila1b8/vvv3332s58t+QIWNKz1UhZCHVCWrnlcZq87PUgZ0JRy1fTX9zXd7gMmvtd181yHuVc2gJ30kxefwx/v6nxyH7CTDi3LLrFnnnlm0TLxpQYs9+0ajwMNsMbj7VJSJgARcMLB1mNr5Uc84hHFplIL4iyBI2wRvBq8IrB8k0HtHEEYGf5pd0DFyOWytAfpBLh0fa1DtIkhkEJj3LSyABHvAjC+A0S+E84piwmgliWZM6ab6X3KCpzd+y4gxpdmQKr267TFY9ez9tMMfPzJlXLlufnL50ADrOXzdOkpBrAIOwEBWhdccEH3yU9+siwC1lW0mDcjirWwuSeItdARaoLOmE6b2nPPPbvjjz+++/jHP166f2Z3A5NaG1qW5iAdTpkAonxNYQgIhU6AMlmOPItbAxAQsbZw11137Q499NCymNn+8mbJf+ITnygrCCxwPuigg8q8KnwC9HggHwAmTS551H4A3vt8R8u1XMhWNvgUIF4Wn5beiC4hCTbA2gIVGSGPYAAtAg9UAl5mZD/jGc8oa/xqYct9gIDwEVSax2Mf+9ju/e9/f7GRmVKQZSjSr13yXRar0M4mBnRt+WI7HXQBhPjzAAtIKYcu7C1vecvuWc96VnfOOecU2xIgpI2iO+UQ9sMf/rBsNGiHBgZ+u1tIQ75AS97hV+3XvEMXR4O7733vWwA+/OE3wFpWK+lPpwFWP182VWgtEASwFgrvAIAwdi57QdXClntCSfAIJS3BpntsYq5JQJSmKQvSjS/fZVzJyyRM2zsbhQQAAaqAA3pDe+2LB2TEs4Rpn332KZom4E7a8cMXfsCED5jPOuus7q53vWsBPGkl3zqv3KPPe898YImHtDrTHMKb2LOWwaeWRj8HGmD182VLhs4CrFp7oE3stttuxag+raAR+mnvVxse8Pjud79bZvPnhOmAQ+1H40J7AE0YwNKte9jDHla0NAdoBDQWoQsNNC4b+D34wQ++2D5adf7T7kMP4Pq7v/u7coo3fqVsi9DQ4qyOAw2wVse3TfkV4/g0DWsoYI1VQBoOx76kW0ZTmQcMNBxAFbBiRKdZfelLXyrdYmAFLBa9gAttCMB/+tOfLtvk2C6n5tE0mibD7aMF+KLBLUpDi7c6DjTAWh3fNuVXmx2wAAXBBjCWuQAe2tI0oAhQRaPhm7Zws5vdrGiHuqvSku6QS3zfsaMZDTV4wfAvv0lAmvUMQI2sGlVN2YbQ0eIO50ADrOE827RfbAXAAjLsTQ7NiD1oGmAJByJ8wObe7qB2cshe7OmGDQEtcX3HRw972hOf+MQyWXYWQE2+A1jsaLYEkhYQBMjtGo8DDbDG4+26p7wVAItQ2z6G7SjdvGmA5X0AC7ixvZm68L3vfa90BYGNrl1AawjDfZOpG3zTH25605sO0rDQTUs0dw1QtW7hkBpYXdwGWKvj26b8aisAFqCw1MgBEEAIKPEntRfPwjnAwGdoP/jgg1cASlrRaoZqNjSiaFpAzyRQwIMeectzGpCGVjSJ7yAO9rChNGzKRrTJiWqAtckraAh5WwWw7ANvuxbCPg8YxIkzoODQWEAzxqVrx0YmPyOAAcsA1KQf+oGvfbyAZ7vG5UADrHH5u66pb3bAwgxg84UvfKEsK5oEgMnnAEJAzV7rdnUYC7De9KY3FeM7sJJngHKSrjyLA9Rufetbl4NbdVHbNS4HGmCNy991TX0rABaGOIcR+BD4CH+fH9AIgJg7ZgrBWID1zne+s9txxx2LdhUwAlp9tCXMe3Q5K1HXsl3jcqAB1rj8XdfUtwpg0bCuda1rFQ0mgj/NBwjmagEQXS9H0I8NWDH0zwPU0MxYb9UA4327xuVAA6xx+buuqW8FwEqXMBrWLFDwjkvX7HrXu96oXUILpOulQvLW5Qsw9floc16ijRZbl3D85t4Aa3weL5yDUS8CndEmPpew3NcahjATIC1PMfpmXtCkYEXwojmYHnCjG92o+8AHPlB2G/C9vHMlH74rz/KNE5b3+W4R3zeM7sAHXaFpkmbPASqgwemuOfor9IRfoWmR/BMn36YcwOZ5z3te2e9Kvmjj3PfRJix8jdG9AVa4O57fAGs83g5OmeAZadLwI4QEy3MES7fDOjgztA3FAykHsD7nOc8pa/PMC5oUsAgWWxCAsH7Phnn3uMc9uqOPPrrsryUd6dlQD4BxaJC/vOXrPoLuXWgaUlDf0EacNxi6pmkxNXAok+1wnvzkJxd+sBdJCx00S/6iV2jHV+XBc9vEPOYxj5mrUU3yFo2W5+BbeLMoHS3ecA40wBrOs9G+IDgRpgBXhCqCBTjsBPr3f//33X777VdG24AUrWnWMhfgEG2GD7x8wz5kQzpdtL333rucWvPFL36xgGLyDl1o49AS4fS86CWutEwBcJozYQdW07QYNOedezQzcNsmJoAlvdAyhA7fA2Xfu2eDsk2NfGpQmnyu37nHwwMOOGCFBiDarvE40ABrPN4OTlljDxgQJM8ACnCYHW7Nmk3oGHmzTTKB4TKSNilQeSZ4HADgi+8+DthZAGxNnfRNotT9uuiii8qkSHShI1qN56HCGcCiHR555JElb/OepoFCaOYDNkBrH6/XvOY13Y9//OOSPz5Jdwhwqhj0+1aZLBWyn5btYsKv+NNo8947Wp8dG1JvQ+kY3Ei2+QcNsDZRAwAAEUACYPZ0Np2z2Z6RNRvH2fCO8HIBnABRBG3SJ1yJGwDIN57jIog2xnOAKOCyJTPg0vWK1oVtoXVRFhJmZZQGA/e8xc81fSmrb2ypTAtMVxCvhl7ooGEBKxv/Xfe61ymTRif5NusZfexqjieTHjoaYA2tiWHxG2AN49eosTV4DZ+jWdk+hc3GjgC6buk+1cBT30+zBRE68byvgUtY3gmPcCbNaDUOXTjssMPKhE+b3xF0F+AZIqDiAjmO3c0x8LO6sehBAxcNEnD5Bl+AeUBzNXT4QzAAoHta2/5q8A5PJn1x0GLnCPW0GjpGbUyX0MQbYG1QxRIwAEXo8+/sGVAZ8fOvzV6jm5Lu26TQrMczwQQQthO2f9XrX//60h1Da+xIAYuUic+lXFjsWXwDBo71siaQ8V93tgbLeWUKPbquRx11VKEFD3PJJ1fo4OfPwH3oMtDgzEVHmvlDCID30SDfALh7Tr3Y5YH2KV11x2/XeBxogDUeb6emHOEhwO4JHF/3RFfnmc98ZtE+dP9mCVGfYI0Vhg7g4rCLpzzlKYVOGgrNIsAFCFIWgus+moctXGgixx13XFnKYvoFAACGQ8oYwELLTjvtVADHzPmM0oW38q95izZON9L+9TYQZA9kE2NHoy1Jexr/0BgnLrAC4rrL0pQX1wBrarNfyosGWEth47BECI5/Y77ulXtgZRa3nTRz+k0EepoQrWd4gILQmhLhAAZHdDGgBwwIa4AiZaRR0RhPO+20Mo0CCBP2AET8RcuCjvDFt9Jj06KRGn3ER3nqugJU/PX8k5/8pOx7Rat6xSteUQ6J1Q2M1pTZ9NPoEC/aIBrYEc2/wgOgHLBqgDVMFobGboA1lGNLiE+Yo33waQf+8Z11RwAJB2CYZ9+ZJlxjhRNUYENwjSgaTXTqDlCgZUW7IsAcoLLPlL3XGafTBUz5+Jx0F6U5NAT0gJZpGUDUImTdxHe84x3FkE6j+/KXv1x2FLVO8OlPf3q3yy67lJE9WpU0aoeWPjpCrzoJzWbEv+QlLykbCQaklb8B1hIEZEYSDbBmMGesVwAr3QgTFs0492+tixGNI4LsuU+I1jsMUKApQMEHWugGWjQaAsvRuuyqACBsuMdGBHyVhUvXSpqc50XLI37S4ac7hx5aj66mbiswBWC3uc1tii3QwAXNVZzkHwCSpu+Vr4+O0Ci+PAGvOVsO0qAdA+domfx2jceBBljj8fZiKdf/vNFGaCbnnXdeOcg0AkMgagFx3ydEGxGGRkLLj5ATXqBkX3Rzo77zne90p5xySnfjG9+4ALB4gMB39T36EzakLNIIjwKgwibT8swlrjh1Pp7jEncyTuKnvOK5N93DEWW6genaR2uu6/liDaA9LIUDDbCWwsb+RDTe/PPGKJuGTQths7rTne60oiVME5gIziJ+hDBx85y0CV3uE2ctPtAAWk6fthbPFAGa4jRtpS+v0Oib3KOzL+5GhAG9gJXu8CGHHFJsYg2c+tv9mKENsEbkrgYdu0aAK2E/+MEPyr7mGVJfFohMApJ0hQGDvAsoLEP4pUWgdQ/Nvq+7tYumLw30RZMBCtGMFk1jzHjhF1uZA2jZG2lW7Vp/DjTAGpHnwIl9g59RJL6u08tf/vJy6nBmrQ/RSGYJJ1AKMNU+AJjUYAjirLQWeRew4cdONbQsaANWfGm430wDDsoGrKw00N21SFydtmv9OdAAa0Sea9Q0K6AFqPj+mY1Y2V4lgg1Ycr8ISMyKI50AAKHP4mYC516YONwyACsAyZevNIemixa0MZjjS6Y+DE1nFl/W8g6AXv3qV++e/3kVbcIAACAASURBVPznlwGF1OuITaclPYUDDbCmMGZZwRp3DLN8Rul73/vexe5Ta0DLEk7Cr5tp9wV7XhnNMlq2++67F0M4LcFoGSGU/1oE2bfySzlyPzRd9N7qVrfq7KluGoJtXnQxpbdW+tb6vXrR1bXA2VmIuvjRlpfVRlo6i3OgAdbivBocM//EGjntyrykk046qcxJGiLU4tJe+BwhIsx8z4zeTpQxgfKII44oB42+5z3v6c4999yyBzqQZOD3/N73vrd0Ry1JYfDfYYcdyryqSbCRNlCr85om/KHDe/dxaKvDag3MPVCyW+cxxxxT9nk3EMF985vf7J72tKeVnSNMW0gadZmTR97xh7h8P8vXXQf8L3zhC7vvf//7BahozOq1XRvDgQZYI/K91q7Mu7JxHa0nQriIgBGoGKF1mwJahJdAmTBJO3n1q19dQMkSGBqAix9tIEZ/z+4Bg4W/hueBBsAz8zuAyJcHYAnQLEJv4uR79EsnTpc0ALv//vuXBdWAPODOB/BmpgN3gKGcwBMdAVHphC55JN9FffRk8mhAC814LF28cBSZtZM0Kzxr18ZzoAHWiHVA+ACEeVcMtY5nN4o2RMAi8JkgGRsUELPbgTQvuOCCldnm8owLSKWIngNiocvyFScpH3/88d1NbnKTYuMiuHEEOzQsCgbiBVykk+6nMPtHWdZz+umnlxn+ls2gBc2hD79opCajWnJDc1R+Dj1JLzQGcIbQ59t8l3v04S8anUx99tlnFxpCX/gYWvPc/PXjQAOsEXmtYcfgboIoe5JuEEFZVLjEDUgRVI5A2R3Uwlsb+9HeaCUEPsKUe8+zwnzHWRBsxv397ne/laUrAQc+GhalWTwgAACiHbFTKf8rX/nK0k2lVck3ABoa4yecxmjW/LHHHlu000ybQE/yAN5DeBr6fB+HVjTe4ha36E488cSirVqXqP7QVF+hsQ5r9+vDgQZYI/I5DRugWHAbY/cQ4RI3//wBK1sj29KXBkKwzZgnWDSTGqgUDQ3iRHvxHBdQCJ20Hd1Wa//qXQzkDxSGAJZv0EsrusENbtAdfvjhZVuZLElCD5oDWqEpAJFn8cSxhOmjH/1o2VDQNjfW8hlNlE9AZwh9+Io2AGirGjPzH/nIR67wFS8zWFI3kdDFb9f6c6AB1og816gJm43m2GsICW2FgC0qXPmGYNLOdKd0AQNOBJxQx9WCJCwClvvE4+dbcQJe0tVFtF9VpkKsRoOJdmYZy2TXqs4vdAlzH3ANnaErz0CVturQjT333LPMZcOb8BVv8azPBdjE9Q3QcxDHCSecsAKm6muSL3UTQWe7No4DDbBG5r3Gb78mWka6MUMBi3D5li3HIaS0FALsWrYASY9moRtmYTMtJHQvCrLioZmzAaEdG2iDy6AVgNEoGcKtFsAPAw4Pf/jDS5fT7qjmTBlEMCDBubf4mc3v9re/fQFjUygMOtiSRndYmniKxmXQOXKz2rbJN8Aaseo1fP/YNq27/OUvX7SA/PMvKvzi61oRwje84Q1F8GlBYwqVtNmOTIEwbwtooWFRmsVLOXXbrDEEMMBmGVeARXr4a8TTrp/nn39+6dKxxb35zW8uh1W89rWv7U499dSyJfOnP/3p0uUVNza0Wpsak6fLKHdLo+saYI3YCggAbcV8J8ZnmhWtgzAvKvy+0TXLVryENd3BsUhHNzAAWvKlpQzRClM235geYKKsjfOWBQjS4fACnZN+HYZHiRsfSAG6pFPHGYunLd3lcKAB1nL42JsKwdBtoR0BKgI8VPDNC2Jktg868DMNIRpGb6ZLCAwAsBd97nOfK/O8htINlH3D/mVvKt1C6S7jCvAApoBTeBIQShlqDUrewoW56nTct2vzc6AB1oh1BFycDsOGErBKVylayDzfFAaz1y2YJmgR0BHJLtpHBNtuqJbK6NrNo7V+n3ICauW3C6g013oBFjyogSngxJ8M95yyhHcJq+MnbK30te/H5UADrBH5S9jN6WG/igDHr4V71j1j8bve9a6VKQwRSP5YV/KIdmKxtvV0s+jse6esRuQY7dmSaIjLuACNLh0/V2gOmCWc710NTomTbybTqr9t95uLAw2wRqwPo0/OzzP/KkAVv0/AhdHExOETdt0pI1nAIwIWfyzSI+AE22UtohHKaTT3hacM3imHvdaNFLarcWAtHGiAtRbuzfnWaJThdqcoR4BnAVbe8Qk6Q/1ee+11MQPx2GClSNFGAliA90lPetKqAUt5Dj300LI8aQ7L2uvGgZkcaIA1kz1re2kC5gMe8ICV5TjRngJIk5pJwsXzzlKRZzzjGb+iWQVQ1kbd9K/TZeLLi/H95JNPHgRYddmUx9o8E2jb1TiwFg40wFoL9+Z8ayj/nve8ZwGsGqwCTLVQ5947XSg+uxHbTy7aVUDE/VhXAAtYudcdtS1waBzipzz3uc99yhYtY9Hc0t0eHGiANWI9f/3rXy+b52UOFtCK9tQn9IS7jgOwTHoEHNykHWss0pNfbFmeTbrso3lamLLknXszzE3sbFfjwFo40ABrLdyb8625U3YosP8TrSmaUy3MEWp+AIvPASzbqwCMgAc/wDUn+1W/rvMKeFlsXdM67z4apXjuHRJL42xX48BaONAAay3cm/OtnTMt0M3GeNGe+H0CH8CKsJu/9La3vW1l3hGgAiBjA5ZiAa241WhYyhfg5RtltGi7XY0Da+FAA6y1cG/Ot04GNsqXPbACSPxpgJU43pu/5Tj0LCMBVLEvAZMxr4AV31IgWy730TwvTHk4gw9GTdvVOLAWDjTAWgv35nxrWc4BBxxQACvdQf4iQk7LAnSPetSjilZVA1XAZE72a3pd52FNoQXc8+iefA+oUl7b1bRRwjVVSfu4a4ufR20EltM89rGPXdkWudaeJoW7fhbPkhYzxJ2obIlPZmPHnjUm4cCqzscBDA960INWBVjKoWwOlTCfq12NA2vhQNOw1sK9Od/aJdNGczaKi10KGNXgNHmfePGd0/fZz3627NdEy+KAyZhXACt5GSG84Q1vOJPuaeWgYSnLi170oqUtzRmz7C3tzc2BBlgj1o+lKG9961vLaF+Aip/7SSHvewZ27Fg5uSUgAlTGutIdBIzW/zlA1CTWPvqmhSkj7Yoz6GB/KrQv4wp983x5JY77WmtMOD/vyk372dQcaIA1YvUQdjt37rTTTiu2nNiypgn6ZLgpESafMuAzfhP6GOHHIl0eDPy6okb2TPq0TcwkbbOeARbNyhy0a1zjGmXXioDDWukGPOjjAkLSdo83Najn3rvJuAlDT96tlbb2/bgcaIA1In8JgR0bHJ9lx05CPBSwxLd4+t3vfnfnFBcgsizBn1Z02wUTdMZ20yrsOjpEKwRk4nM2HzRp1InOy7iUHSgBq4AUPqPXM1APmPH9acT+532+Cdjl26S3DBpbGuNxoAHWeLwtwkFYLPx1OguNI7apWdpJ/Y7Q61bZX93e8BE4/liXtIEW7eoud7lLAZ2apkXuQ7eRTuV3HNkyaJZGwMl9XK1JWfvIwK8bzbcdsrBJ4AJSAb+kORZPW7rL4UADrOXwcWoqhMJs9atd7WorWgdhXkToE0d8Wpbtik2VIGTLEP5pRBNeI4NPecpTysZ99nRfDc2AFt0271vWIRTKHaCRJn6ce+653SmnnFJsbY9//OPLMWVOKTKyuc8++5QTi0yrsOOEY+ctdzJz37wwWmtAa0yeTuN1Cx/GgQZYw/g1KHaEy5IU3SICPFTwgZZvbJUM9OyaQGsgZGNcukgOdXj5y1/e7bDDDqUrG80wALqIn9FBs/WtqQQu0l7LBUh1iU0XYdN7y1ve0t3//vcvp+HIxzY+6XLjWXjN1yXnxGFTdA7hQx/60AJe0qKN9dGoDhuQraXWlvttA6zl8vNXUiOk/sWf9axnFdAhUIsIfOIQNkDnO5qOo6poCOxLBJiTR9wkAYTNu/iJl+d8n7R0BY3oEWiGdvkHfELTIj6QAxCO+Xrc4x5X9nQHNsmf7wodkzTSorg6XJk/8pGPlPRymg8a8WfRrrbyiOsb89yMYJqyceSRR5YdKRyhhqbQxibmzyH8Cb9KhPaz7hxogDUiyyOMBO+MM84oxuuAwCJCL04AA2gQMHurA60Xv/jFpTtEgIBMhFtxkm+E3XNcHeabCCKh1L06/vjju2tf+9plwXY0wkXBoC4TsAooXO5yl+tudrObFVD46le/WjQZ+dVAgJaaRu/QyqfxfehDHyrnCd7oRjcqUyzwMXQFhOr8593XfJWWk4GkrdvIVmiwJPmHR5N8HbHptKSncKAB1hTGLCM4DVyDt82wI+YBDmGZJ1B5TygJf60VEDB7vRMuk0p/8pOfFNAyIhZA4gOBGpTyLnQFDHzPpmM2uu6SqQjyDBAAyyE0oz10A62ALeAyRcPcNFvNMITjDbri6mfvv/Wtb3WveMUrCuAZuAgQhiehcTX0+SbfS0+326EfBjjYxHQVaVwBU7ThGf4Ja9f6c6AB1sg8jwASvve9733dla50pSLAAaR5PoGiWQWwCFZOY9adobkwJAMAgMURJoJF86rnbiU8gsdm841vfKNMTN1jjz1WdpWIIKMtYCX/ebTW733nG2nlng8U2JuA9z/8wz8U7QldAAvtaOOj3xy2hz3sYcVw71t8CGDVaQPFofSljPF9z8lDeux3RjcBpq4sGlOXfKDVrvXnQAOskXkerUaDZyx/xCMeUaY41MI9754gEdhoFREuYcDLLHQ2p2c+85ndpz71qTIdQZdGngQrDggIt3WzHUTFB3i6QyaoEtS4CDLa3Mt7Hp31e9+gU3ru0UpzS1pGD69ylasUexQtEXiiDxig8cMf/nA5j5GRnEaZLmCdXu6lWee9yD3aJuOFZjwFrGi8853vXDYvrOfAha8jN52WfA8HGmD1MGVZQYACYOWf2T/1Rz/60W633XZbAZ8IySyh8y6uFtJ8Q/gCXA5dvfvd794ddthh3THHHNOdcMIJ3cte9rKihTH8O2PQScw3uMENikEcECQdvrTyHIGefE443zs05bv4wmuX8HyT74DtbW5zm2I7+9KXvlTA1qDCLW5xiwKi4uXbST/pJ82artXeA9akG5C9613vWrRjoAqsAGvTsJYlJcPSaYA1jF+DYgew4gMvjR5w0GoIet3dW62QTX4XgeObac4uA9Ai8ATR/eR3q3mWbjQ/ZZH2UG3MN7FvsaPtvPPOS6NvNWWa/EYZTaBljKclAy112a7150ADrJF5Dqxqp6Gzi9zrXvcq3ZwIOH9SUFbzDKR8x5cmF6AKkOV5NelPfiPN2JakGw1wMt6sZ9/R9HRLGdbTdZz1zXq+UyYz9s2lU3dsbA2wRhacKck3wJrCmGUFa9hcDVrsIeecc07pGhKEgNYyhDBgFHCq/bxbRj5JQ/roj7Ea8LgXnjjz/NDoW2kBCP6879brPb4pkxFegwBAqwHWsiRkWDoNsIbxa3DsdAcDWBJg0zIJ0qx1c54YeJcloISfgEkvoJGwPBP0ZYEXcNHtNKrG7mQ2PsEeUh50iY+m0D7k+7GBSxdXOXUNbfdz4oknltFNddqu9eVAA6wR+V2DlX/kGN/dM9xy7FlXvOIVBwn4LAEl/AGoAEDCfJd3/FnpLPpOOkbT7JlF87Bu0i6phHtIGtJJ1xJALIu+RWmYFw8vgRbaDJoYjW1a1ojCMyXpBlhTGDNmMOBiuOVfeOGFZXoBI3wElWBEYAnKPGFaj/foidYWIESveWV2VbW+zyioWelOCzIymSPOxPd9yoTepCEsZUycOt5k2byrtbHwKt9KSxitlU2M9gc8803i1c/uJ/Opn71PvnzLjfbee+8y8TWjhtqL+mzXuBxogDUuf3tTj+ZlUqcJpWbB2xnBvCSTQQkIoYtQ1cKzUfcENRoQUGBvMiv+6KOPLlMRaIs0DmUjuLaHNtfL5Etr9XQTfePblCtAIO1FyyUuoPRtHLoY683+v/Wtb10mpdpL/8lPfnL31Kc+tdDwwAc+sNt9993L7q94jJaUJ+lNo0M4F7rVja6v5ULmjClvyt66ib1NfmmBDbCWxsrFE9K4ucxCNyOdhmJ9IJtWhCmgtagwjxmPwKLHCF5sOXZ0MAlVOSKwEV6ah9E0Av3e9763HHem66hsAAJYRLMaQnfoiCYlPdrpgQce2L3pTW8qGwXKE03RYtFkT6wvfvGLRfMzGTSjkcqiXOiR9ixaAlri+/7Rj3502YZH+pmb1QBrcTlYTcwGWKvh2hq/0ag1cAJNsNwDLUJlp4Sb3/zmK//+84RoloAt8x06gAMB19U77bTTihaFdgLrClgpX0AMaJh7BpBPP/30crAsYQc40iT8Q+gMHbp8NCW7ub7yla8swKk7moXgaODy54A2/DZCa68vi7xNss26ydDTR4s8J98DuGte85plDWYDrDUKxIDPG2ANYNayohIkghwNgNDH2ZfJspQHP/jBpfsCJPqEaL3D0GENoI3w3v/+9xdwDVgFHOITYGUDFvHFpfmcd9553bHHHltAD/gBHoCwaHnEpaHpYprMedZZZ63QIj95c2jJfbStgJcFzT/96U/LImzdxIzSTqNDOBfQcq976DtaJhBMnvJt13gcaIA1Hm+npqxRE2ACxCfUwgJgBIwx3sgbu5a5WoR0mkAtKuxD48lPvtbzOUjCYaq2oGFcR28mULrnXLknwMrnOfcpL03oXe96V0lzaNcQaPjG2slPfvKTKzzDx1wBKnmHzwGr0IPH6HCi9XWuc52Zk1VpgTXv3aOD23fffVe6hSl76Gj+8jnQAGv5PF11ihGmCJeulOUghxxySHf1q1+9dMkiKPwIToBIWO5rP/ECDrQDQpg0vI+LIduz+IDq8MMPL9sQp5u36gL+/6fTAGbbJhttk5+8anpzn7J6715cNBmZpOXRlGpwGkIXXqPD4IB5VexgoSX5Jf/Q0+fbSNDggvTUW7vG5UADrHH5Ozj1aCM+JAAZRcxOm+wu1gamK0W4AjIErE+ohHkHpAJU8X1fC6i0rOszsmekTfeUzYdWtYyLYOtC2RJHNzMg0Ud3TZt7NDPc29vesffhFU1PukMu8TmgZ2/3BzzgAaWbGTrCkzxP8wEdwBua/xBaW9z/x4EGWP+PFxt+FyHiA6s869YALhvtOYXZUL3he//uwEWXkT0IABC0PuECDNEY+OLTVnzDCE7wpCfdI444ojv77LMLKMibZgUclnEpEzudETa0omEazcKBFNqVSfcUjexg+FFrV9IdcoXH0pCWvbmGHhSCPvO8HvWoRzXtagjz1xC3AdYamLfsTwNS0q0FKl0x7zlCxpakW/TsZz+7M8fIdjFGzaZpWcIDAEAKUDBcX+961yunyzCEn3nmmQUU5Sd/jvYCtNwv45KOnTwdzoqeeRqW90BLXCN697vf/Qo9eKBL58KTIRcafMv3rfKZnrHXXnutdD3DL/n2/QEkDH2266l5NoSWFncYBxpgDePXqLEjQPxc7uMipJ4JCM3AVAial26b3UPZhSJMtV8LILDaddddy/wo3zHws+VIL4Z0Ap173aahoBD6J32029fdxoEBq1mgEFBTFuv4jMqhLUCDJ9yQCw1JwzQI5eQ7iCJaas2vmo/1vTjA9I53vGPZdgYd0m7XeBxogDUeb1eVsgZfN/r6efKe0HIJZ2cy9aAWqtwHFPjsX9bD2ekz3/KTFsLzHCH0bhmXdGzU5yANAh9gCJ2TvveATbiZ7J/4xCcKQEVDCn3oHXL5Di3Scc+3d7yucfKUb/KepMuzeADrtre9bZntD/iG0jGE5ha36xpgXYJaAU1oHmARNFpEAGu9i0+gzTg3ox8tADRgOgkKkxoYrfBrX/vaUkABHZPOTqd2nQhQASOgNElXntHtvV0qvvKVr6xM91hvnm6n/BpgXYJqeysAVjQsxnPCPgsQdF0TB4jsueeeZWH1MrQYdHA1aJlqYX3kJFAGoCb9AO1Nb3rToq3qVi6DtktQk1x6URpgLZ2lG5fgVgAsAq1LCLCioUwCQZ5rsAIizg2kySwDFAJWNXA5foyGGsBCR0ApNNW+d9ytbnWrYpeL4X3jWsAlP+cGWJegOt4qgAV0jGouAggBLb5Z/6ZbLAOwatuX9ACX+VRZ5yi/AFINUvV93rNhGflkB2vXuBxogDUuf9c19a0AWIDCRn9OyonA1yBQ33sf4OCbc/a85z1vKYAFpAJUfAMWtvjJFIr4aKhpqu9Dm90f7CCrbO0alwMNsMbl77qmvhUACziYSmE+la4XV4NAfV8Dlnsb8jmVGbiYO5Vu3Wo0G3RkhJDtCYg6zisAFb+mZ/IeYJnMapa8tKTZrnE50ABrXP6ua+pbBbDMdH/84x9fwIHQTwJB/ex94gA3s9Hf/e53ly1rABa7UYBrCLMDWIAGAL7tbW/rdtxxx5m01HS5B2q6kE94whMKDUPyb3FXx4EGWKvj26b8aqsAFo3GFsqL7EABFGotzDKkBz3oQSu7nEZLGqLdiKv7RkvjTJzdY489ykz6SVCa92waxOtf//qSnnSH0LEpG9EmJ6oB1iavoCHkbQXAog1x9rGi0WQR9yxgSPeMD+SA1ute97oyO9+OFsBnqP0IsJjoaRH1UUcd1TmBOprcLFrqd+ixtMn6Tvk3wBrSWlcXtwHW6vi2Kb/a7IBFoGlEAOsLX/hCWdJi8XAAqQaDyXtxAApti283ide85jVlIfVqphOg5Uc/+lF30kknlUmsFoOvBrBszWy3h3RLpduu8TjQAGs83q5rygTGti32ipoUds+EkdBzZrqb7EgzWE8BkxdNBK3Agu0n0wj6aK7DQjsfaNG0rn/965eNAO0euuikTfmLy45ma2XbHOPNIt3Tmh7f0A7N3WIDS9nWk5/r2sA2SWYNsDZJRUwjI4JAyCPsMTT7xnvvCI1FxZe//OV/BbAi5ASMoJlBvvPOO5fdGWhl0sgol7SSJr++n0bjkHDpoV++1gWaqJkpBGjjamDouxcnwKtbaTqCjQ6l61KGSZdRRds026nU9jZ4hRfhD78vP2HyjHYH3GiGu+yyS1lmFN6lWziEHy3uMA40wBrGr3WPHcCIAHomGGw3NAu7XZqbtN9++5VjrHRt+oSOMGZtHN/WMnZMcL6e7x0MSuth1wEm8gCCyZe/1itl4RPyn/3sZ2WLYVswAwM0LgJa4qU8wMNBtPbxsrHfGWec0X39618vhnQHX9iGx9YxwNypOo6aV24bAQbA8SvA1cc7YQGr8JDNy75kdsoIUClXu8blQAOscfm75tRrIadB2ALGrOoPfOAD5dw9e5vbUobwEappAhetJKBA8MQ3t8n3djJ93OMe133wgx8sI3A0EVoJ8Irdaa2FUZZohwBQF/Z973tf2bkB8KAp9PEXLYtyABzAZytpk1IPOOCA0uU87LDDypwvGqXusvKKH+AJz+Q3K0/v0m30p2Af+HPPPbfUh7IALXxq17gcaIA1Ln/XnHq0EXYXAm6rZAcf0CqAUICHQEX4+gQ9Apk47FgR3ICFMLPJCTtNhRYHYAAXgVzGFY1NetKmodizHuAEVOdpWcqScourHCmDd8qf8iYen8u3iR9+8HM/yb86Le9oZ894xjMKX/KHEsDy3K7xONAAazzeLiVlAq6bdv7555fJlnYToBER8AhZBIo/KWz1c4AgwJDvABUBFs6PpqKL5VRqQLkMQZQGwVamgCBNjpZli5YaUNBS017fB4RCPz+0Jw1h7oVH+0zY5HfpDgqv88m9cOkkDzuMXnDBBUX7rMuyDB4tpdFcghNpgLWJKlfj1+jjdDGMZjk5+b73ve/KyS6AivBE8NwTrmkCF8HLN7UmkTQilPGBGE3iXve6V/f2t7+92MtCFz+0DmVfnUYM4WxxTr2+8pWvXMAFaE4D49CbMnmu70N/ypr4nhNW8yrxE8878SbTRBPg0xU0K17XPF1lvFgtP4byb7vHb4C1iVqARk8DoVHxbVtsgqQ5R/YzD9BEI4hQLdsnvPICWrQUm/055cY5fkCGoMYHQGu9lNsEzkMPPXRFe4x2FEDxjCbPyy5v0gug1b57eRsVZAPTFUQrmtu1/hxogLX+PJ+aIxBg1wlYvehFLypr5/yzcxHisQU32kZAgpHZGj70GNlDH5sa4OLWeknPiKRur4MgcpgGrSa2rYCIsADMWH5AMnxAA9veQQcdVGxumQqy1nK374dzoAHWcJ6N9kUASzfwJS95Sel+AIsAFaGt3ZgCG2GVH4Ck4RmBMzPcVAFARRNchoYlDWkpv8ms++yzTxnNA9IpL6DK/Zjlzp+B8svHs66xgQjbM2fKxzLKPVpDugQn3ABrE1WuboZuoBE6kxp1QwIY/uUnhWlswZW3PAJe8reJ3mtf+9rSPQRayxJc6URzs+c7w3YOjE25gVaAZIyyS9ufg7SVHc/RcI973KOAlfKqIw6t7Vp/DjTAWn+eT81RdxBY2T6YZhVBDWgEvAIkYwhthLUGBvlFw+Fb1mMemGkPywCsgBVACGjZRnn//fcvR3uxpaELmNR0Lbv80g5v+aaOPOlJT1o5EQdt0bAaYE1txqO+aIA1Knv7EyegGr5/avd8z2Zo3/Oe9yyaVd0NjGBOCqtn8QCbOAG4Ol4dxz1B5Cd8MixpJM/4ied7uyXc/va377797W+vdAujbSnLai+8CD90EU0dOP7448uOCAA8oBn60ZbyhM7aTzxxOO+ETZYxaXinG0qzMtDh2C9bz6TrG/r47doYDjTA2gC+s9X4hyYIBJxmZT7Sk5/85LK2juBEyCJotSC6r9/nPsLo2X0cAQVsBDFxhcXlu4DkZF55jqDzdZWe/vSnF4FWhmhHEeplsJVh35QHG/bd7W53K+cSMsijE811Oev7lFtYypz4dRkSFp4AYvPcTCEx498AQ4B4GeVpaaydAw2w1s7DwSkQaoLAEXZzeqzlYx+KMEboCFgAoLEdJgAAIABJREFUY9InaN7HRWj5ASgaA4M5DYXTvSLE3seJH/uQsMl88iweJz/xdV3NEQPAcYBYuZZxBQilbQKruVoWHFteoxwcesMrfmgNGHnOffyAmHJIA18A4R3ucIfuVa96Vdkuxp+IfIFm06iWUZvLSaMB1nL4OCiVaCEBLF2rhz/84WWGeYCDcMVFCGs/7yKEASkC6PRia+fsm26xL/eoRz2qaClOq2HQF6/uYhF8Aiy9Op/cJx9+AIugS5cWpEtLwAHWsuw7AIuTHgAxD0w3EajY2x3AG5hAe/iGtgAyWgNoyuEenxIOpK5xjWt097///bvTTjutaIs0XfVS26oaYA1q3qNGboA1Knv7EycAEWzdQgZsggNEIlDxAxiTPqHjAlSEz+6Xj3zkI4tAn3POOUW42WBMQ+DbtcCC3Ve/+tUFxOwn5bsAl7QI/GReeY7wixPht2ha9ynd24BMf8mHhQIOfArA89N9Zu8DMsccc0z3kIc8pBwXf93rXrfMlgfIli/ptnIAnAHdTHr03u52tyvfPOtZz+re8573rCw/ArjRrOTNCWuANazexozdAGtM7k5JO1qD7sbPf/7z7sgjjyygAQjy788PUPT5ASzAwfZiexUCbDFxrekEHPnJlyCKR1gZz22iV2soffkJC4jyA262qTGhctlb0WAdsEJzQAPdKQ9g8QwobSNj+xhnFtpQzxw2M9If85jHFHf00UeXzfrw5+Mf/3iZomCum2+TZoDWc9IOv6ZUYwveAA40wNoApke7IhwOFTVNYJZmEwAJSPEDGBYqP/ShDy0Cm5HHRYpEGMU3u/zggw8uM7nREOBKnvN8dDBUszEBgADjIjQsI07yC9CgwR+BssV5Fs4BP3GV37ft2locaIC1AfVFUPIv7sQVu24S/Hng4H0NVjQjXUCgx75DEIdcgJNQf+Mb3yhaUnaBWISOxEGPLpjJpA4TBQTtahwYiwMNsMbi7Ix0oxX4t7dTqFEvgh8Q6PO9Txw+Y7OdM4GV7hjgAUBDrho4gZZRMgbr5NNHR1+YbuEjHvGIlcMYhtDQ4jYODOFAA6wh3FpSXEABXNhRgE4NRn2AIEx3rdbCGOlPPfXUlW4OzWaodoMG3/B1l8yytyMBu9g0OvrCjRYyZANPl/K1q3FgDA40wBqDq3PSJNDsKuZeGdkDRDUYTYICQPM+wEYLYrfKNidAh4Y1FLCQ6RtgpTvpCHlTIIwcTtIw7RlN5nkZgWPQVrbV0DGHZe1140DhQAOsDWgIBNo6PKNWtm1ZBLACVrSfK1zhCmWfLHawaGt8bsgVcIk9zRwkWhtbVvILkHruAy3hJqfq1to5NFrbEDpa3MaBRTnQAGtRTi0xHqAADtaqxeA+DRCARN4BD3O1HDzhiKy1XgE5AOqeTc2cLdvIZJ4VX/6hYRpo6bK+8Y1vXNHWpNeuxoFlc6AB1rI5umB65l89//nPL9MJalDqA4S6O6j79Td/8zdlGsGCWU2NFsCKD7gY8Pfcc8+iNQGp5N1HV8LEA1g2+KM50rLa1TgwBgcaYI3B1QXSBFjPfe5zyyzseRpMAA14GB00Isd+tdYLUEW7kpZn9ix2LJNR5SfvRUCLJvbsZz+7TIRtgLXWmmnfT+NAA6xpnBkxHDAArOc85zllDtMswIqWE9BiK7JLgpnqa71qzcq9C2A5n9CSltBV0xCtqvYTzwnMRj6BYLsaB8bgQAOsMbg6J80A1rHHHlsAiwZDQ6lBoL73XpcLMAAsC6Wd0rzWK9oVemhFnNFLGpy5VfLLdIpoWzVduQ/9NEa2uQZYa62Z9v00DjTAmsaZEcMBhL2WCLjDDQj8LEAAHNkSBWDZG8pC5gAOP24I2ejISKNpDQCLDeuOd7xjmdoQwOJPA1R0J94JJ5xQbFgNsIbUQos7hAMNsIZwa0lxAYW920888cSyiwAtJtpKnx9AAA6M7rvuumsZJQQyRvYCVkNtR/lOGr61LxfbmEmpACpAKn9uGm2hz/IcXcoGWEtqKC2ZX+FAA6xfYcn4AQDLaJo5T/Z0SnevDxDqMABC0zJP6uSTT77YQl4gMXQtIToCeHzrEU855ZSSPppC1yzAQh+6TLewmR86pNuuxoExONAAawyuLpAmW5G9qcx0n6a9BKwAgjjxaT+PfvSjS7dSl44DFKvRsIALB+zsuHDIIYeUEcLQFD+09Pl2eLCk52Mf+1gDqwXqvkVZPQcaYK2ed2v6EkAwnN/ylrdcAaI+MBAWoAIeARCb72V7YmAVN5SoaFm//OUvuzPPPLNse0yLk6+86ryn0Wctof24vvzlLzcNa2gFtPiDONAAaxC7lhcZUNCInJJD4ANEfaCQdzWAML4DCVsGZy2gNIdcATkamnScv0d7i01NfnEJ66PPnC1rG82SR8NQOobQ3OJubw40wNqA+ifQwIKWZX9yy3NmAUIfSIhv6oEpDrpy0gSAXEAjwCGvvEu+eWZotyd79pSnUfXlV4NlrXW5twXxy172sjIHKzaxDWBry3IbcKAB1gZUcjQboGFLlt12223qtIE+8BAGQHTdbJ5nT3PpsItJO4CYe/kAR34NWOZMAbvDDjusgKb0ZgFnQKsGNfarq171qr+S/wawtWW5DTjQAGsDKhmgxFDOjmX/cTseAIRpADUZHi1HFw5o3elOd+o+/OEPl2kJRiClD6Rq0HIv3HvTF2wHY9M+mhqwylSGybz6ntHK6Q7uu+++KxsIBiw3gK0ty23AgQZYG1DJhDqgRes566yzBm+cB7BoQwEugHfNa16zO/zww7t3vetdZekOgIpGpasGwNiZTj/99DLKKD6QMiUh6ZnnNQ04A1KJy3cKjW1lAKGyNMDagAa1jbJsgLUBlU2oo/0wmJu1zoY0ZOO8gBXA4TxbGG0NoEMhHLV+5zvfeeXUGEBmBrtzCXfccccSDzhlkTMw0r2bdQhFDVjACtDlXMJojAGtDWBry3IbcKAB1gZUcrQrPgHXRXO2H1sQEAA+wCF+X5csWk5AhC8sz+518wCSwyqcrhMbVeKKw0k/93mezNM36IkDbKZWvOMd71ixnUWbU652NQ6MwYEGWGNwdRVpMpgfccQRZW0hMNDFi+Y0CR4b8Qywos2hj93Lrg4XXXTRKkrbPmkcWB0HGmCtjm9L/4qmZS7UXnvtVTQh2hBtBzhsBED15Qm00GMOmKPiv/a1r5U5YEtnRkuwcWAKBxpgTWHMegfrRjlIgsGcIZt9CThM66L1AcrYYQHQm9zkJsVwbw6XbmC7GgfWiwMNsNaL0wvkwxDv2PU3v/nN5aAJ3cLNomHFhuUAjOOOO67Y3WiF7WocWE8ONMBaT27PyQsAmH5g6xmgwAi/WTQsdLBbveAFLyiLrtHKNQP7nEptr5fKgQZYS2Xn2hLLVAdTBEzsBA6mKGS0kJYTB0C4PMcf0i3MN7Xve88M7Ak3crnDDjt0Rx55ZHfhhReWrmtGOBtgra3O29fDONAAaxi/Ro1N+LlMD3Cw6UknnVTmTjF0Z9Qwtq0AivCA12oAK1MVpCedpM/wb27Yda973c52ztYcGs0ErOgErA2wRm0SLfEJDjTAmmDIRj4CKl1CIJAul8Mq3vOe93S77757mRgKnABJQKUGKverAax8E80KgNGqgJV1jjb1Y2AHVOhLVzD+RvKs5b29ONAAaxPVd4CKHwcg7FVlyoNFyplcCrgCWoAm0yACPkN9ICU96XBmwz/+8Y8vi6Od0JPuKlAFVPxogpuIhY2USzgHGmBtogpOVytgxQ9AOBziu9/9bvf617++zNWyDtDs9XTnaFer0bDyHbCSnlOfH/CAB5RTnHVJTbXIOkFAFQ0rgIXGdjUOrBcHGmCtF6cXyAcIAADA4KpBIVoNwLAljP3g99lnn3KIxWUuc5nSfaMZATAa1ywNy3vxTJvQ7TP6x6i+9957l+6ftY3WOIYWQCr/GkBzz29X48B6caAB1npxekn5AAgAQvP5xS9+0X3+85/vnve85xWta5dddikHSAAimlOM9O6jiQEr2pT5VOLf+973Lge6nnfeeeVwV93PaHpLIrkl0ziwNA40wFoaK9c3IcBF66EJmbdF6/rkJz9ZNC+7mB5//PFlGoLdFA444IDu4IMPLs/md9kd1KLlc845pzv//PPLTqEZ/Wsjf+tbjy23YRxogDWMX5smNsCKtgVk0p3k6zYCILtAmIpg7hQfsAmjQaWbp0D1t7nfNAVthDQOVBxogFUxYyvdBrD4ACugxQ8YeQeAAlCeaWUALd8HoBLuuV2NA5uVAw2wNmvNzKEr4ANg+pz3rgBT33MM6d4BtQDZnKzb68aBDeNAA6wNY/3aMwY0wArw8ANOAbA6h7yvw9wnjWnvJ+O358aBjeRAA6yN5H7Lu3GgcWAQBxpgDWJXi9w40DiwkRxogLWR3G95Nw40DgziQAOsQexqkRsHGgc2kgMNsDaS+y3vxoHGgUEcaIA1iF0tcuNA48BGcqAB1kZyv+XdONA4MIgDDbAGsatFbhxoHNhIDjTA2kjut7wbBxoHBnGgAdYgdrXIjQONAxvJgQZYG8n9lnfjQOPAIA40wBrErha5caBxYCM50ABrI7nf8m4caBwYxIEGWIPY1SI3DjQObCQHGmBtJPdb3o0DjQODONAAaxC7WuTGgcaBjeRAA6yN5P42zNuGga74YUE2H8y7yfeJ1/ztzYEGWNu7/te19ECo3pZZ5gGq7HiaZ/Ha1TgwyYEGWJMcac+jciCAFD/bOdtPPodnCGtX40AfBxpg9XGlhY3GgQAUP9oWPwdgCHfyD0BrV+PAJAcaYE1ypD2PxgEgBIyAE//f//3fy/mJTrHOQa60LKDVAGu0atjSCTfA2tLVt7WIB0T/8i//0l100UXdN77xje7Tn/5097nPfa77zGc+U+6dQg24xIvGtbVK2KgdmwMLAVb+7TQk6rtG9fOf/7wccf5P//RPc/2f/exnJb5/Ut/HjV24lv44HEh7SOqeaUZ8daud0J5++MMfFjB64xvf2D3taU/rDjzwwO4e97hHd8c73rG79a1v3d3sZjfrdtttt+Lf9ra37V772td2//qv/1q+l07Sk4/naGWLtLnE0faAZGxkaJukP+Vo/ubnwMKApZI5DfMHP/hB98xnPrN7ylOespB7whOe0B1zzDHdpz71qS6g1RrN5m8cfRSmHeQdIAlYqVsA8eUvf7l717ve1R188MHd9a9//e4v//Ivuz/7sz/rfuu3fqu71KUu1eu8f/7zn1/+2JIHPwDj3p/kySefvFCbS9t84hOf2J100kndj3/84wJaAcLQ3/ytxYG5gJXGk4ZDuwI8Gti0xjcZ/uu//uvdla985e41r3lN+bdLmluLVY3atIGaE+oSYNFgvvKVr3THHXdcd/Ob37z7/d///e43fuM3Vtyv/dqvddxk28hzH2AlP3m4/973vtfd//73n5lO0osPJGl0X/va11YAS1rt2pocmAtYaTSK5x5gnXPOOYMAS8O90pWuVADrF7/4RdHUNMJ2bS0O9Ak6oPrnf/7n7vTTT+9udatbdVe84hVXwMofVdxv/uZvdlyAZNLvAyzakDw59zT7BzzgAYMAC0je/va3777+9a8X7b79WW6tNjdJ7VzASgXnXw5gnXvuud1lLnOZ0nDyzznPB1hsFAGsvsY/SVx73lwcmPyTUYc/+tGPSr1e73rX6/70T/+0dPt++7d/u7SNgFRAiz8JVHnuA6y0Ofm4//73v9/d7373KyA4r73lvTzvcIc7XAywWtvbXO1qCDVzAUtiaTju2SmGalgaZQCLAbTZEYZU0eaMS+j/4z/+o3v5y1/eXeta1ypARZPWBQtg1aDhPuDU5wewaGvaG5d2Ii/3F1xwweAuoXz/+q//eqVLGPDbnFxtVM3jwFzASsNJQquxYQWwXve615VRoDTIpNn8rcEB9UbgOX9cH/jAB7qb3OQmBaRqQKrvJ8HJO1oPP87z5S53uWL/YrT/z//8zxXQkqeLr0u41157le8m0531vOeeexbAahNSt0Y7m0VlA6xZ3GnvLsYBoEHoAUq6Z3/yJ38yU3OaBBIgRRMLcOk2egZYxx9/fBllpE1lHlYDrItVwbZ/aIC17ZvA4gyIdmV6wRve8IYCMrPsUpNglWcA9Xu/93sFqKJt6RI+73nPK4AFpNJ1a4C1eP1sh5gNsLZDLS+xjKYwmKV+n/vcp4wGBoQW9QFUQI6WFcO8QZwXvOAFZcSxAdYSK+wSllQDrEtYhY5VHCCSrtr73ve+7mpXu9qKcX1RsBIPWAGnnXfeudt3333LhOKXvvSl3atf/eruC1/4Qpk2I6/aKZPnZsMaq3a3TroNsLZOXW0opQCD7cqgy0te8pICVtGU+gArBnW+93zdQCOKZp9/8pOfLAD005/+tPu3f/u3YsTP8pmMDga0FLwB1oZW/6bJvAHWpqmKzU0IwNAdtEbvsMMOWxnh6wMrYexUXLqAun5XucpVule96lUljYBS/L7SN8Dq48r2DmuAtb3rf1DpGcKNDt73vvedC1hAK2DF//M///MCdBY3G2kEfq4GWIOqYNtHboC17ZvA4gwAWAzudliY7PJNalp5n0mku+66a+kGAqoapNxPu5qGNY0z2ze8Adb2rftBJQcewIVhnB0qtqlJoMqz97WGdcABB5TtZgJCwM+V5z5i6nfum9G9j0vbK6wB1vaq7zWVFmh88Ytf7K55zWsurGEBLbaso446quzUAfSiYQGtuD7CGmD1cWV7h205wEoj1tBzv6ivOxIByferqX6jWfk+eUcIPedd7DSJk3B5us83nhMn7zznvv4u8Sb9xJ0Mz/O09yWTiZ/Q5Vt5cy7PAIuGFYN6NKpJP9pVjO+mLoRvSVM+9b086rCadvcbpWHJO3QpQ82f0LiIP/ld+DrB/qmP4icf9+leh7a0b3HC1ySW72rfO8+hi5/7Ojzx6m9zX9OUsElfHOlmFNj71V5bBrDCGAU1vB4mDCm8bwzLY57KTTpDmCe/0OL7NBKGZOmGLmvtfvnLX5ZN537yk5+UbYHt5/Ttb3+7sxXwd77znWLAtiunoX2Lfg3vq9TJCs9z0k5D5edd7U+Wp37nPvRPxsuz92lciZs0bGt87Wtfu0z4jJ1qEqw8GxUEWuka2qlDWn2XtMNH+cYonzx9436jAAvdaErbqYW6rzyTYWj3rXTilHMaPya/z7N00MG3o2vagbS0N3R5b0cUqxGsy9S+8O273/1uaXff+ta3yiLyCy+8sOy0IZ52h77UQWisyylPbjJOwtDgfvISlvTy7bS4k9/2PW8pwFLgMChM8Lyo840KTUXwuSGXNEIHxgMtfsLdazxf/epXu3e+851lucnjHve4sj2whbsW4u6+++5ly5O999677Mp55JFHdn//93/ffexjHyuNTPqhsa7w5JPyhgfCJ79JnPiJK17up5U7+YQ/fHzzLRuWLmG6erNsWQErPsByhZ7al37oEo4+NCROvtsowKrrOLxBb+hbxFdG7QIf80c3jf/TwsMjvgstoU2YtG33Y1G6XTT+9m//tnvkIx9ZJuje/e53L9tSa39GeR/xiEeU+XAvfOELSzv95je/WYArbaOuE/cpo3zFybN86/cJj+8dOvlxvl/ttaUAS4H9E/h3oa18/vOfL12UL33pS92izqEHujX+YWyPwg25MFvDqCvWs/TOPvvs0kjsT37d6163u/rVr1621bFO7o//+I+7P/qjPyrLWf7wD/+w3F/60pfuLB6+7GUvW+KZPb7LLrt0D3nIQ7p3v/vdJU2NPA1TnnigkQhDuy1XgCMg+exnP9vLD+9oRnzbF2czO2lNXvIw18ruofj0j//4j+U733q2Ud+OO+64YlCfBlj1WkHa1rOe9axe2tSbdNFkG2PlnRQCNBKAjQIsfFLH2h5AoKWgmVuk3SWutqeuaDXRaCb5P+tZ3UT4+WhSV3hnbScguuENb1j+UGznpF1pX9qZNqdO/uAP/qC0PXuXaZeXv/zlS31e5zrX6f7mb/6m03VHb6afKDsXAEob1GvQNsTVNhwk0scP79Iu8U1vAu3SW821ZQBL5aTRfOITnyj7IrGl+Ldf1IlveN0OlKeeemr5RyEcQ5iXCvSdStNgNZb999+/+6u/+qvSSAzl00AIamw9tWDHvlP73ovrW40J2D3wgQ/sHOBge1/dS/+m8k+jITwHHXRQaaTKpqs2jRfeiWOjvXvd616l4fSVW/rKZA+pfCNN3wLhHXbYoTT43/md31kBrb4uYTQw5bFH1k477TSVttTLK1/5ymKYDyBHSDRs9xsFWEDUn4PTfizQvtGNbtQR8Gm87gvHy5ve9Kbdox71qJKONPF6yKXefactmA93xhlndH/3d3/X+YO0bz5gSnvD87p9pY60s9RN/HTfgZodYx0QIt2PfOQj5U+E3AVk1AM6TjvttJX2NqvtecfhiZ6FP+KkNaTsibtlAEsj9q/kn/9ud7tbEWqMVgGLOsJzhStcoTv66KPLPyXGrQaw0AGs7FFvv3D/ZJMNJADET2OZ9CfpVh7pCNeY3PsH3Geffbr3v//9xTYR4NbY2Sf8K9LclE36k2nmObz63d/93bKOD/3KPnkJs2zmqle96srC5AhBvU+7dJPmZLk8oz95u49LWO1759/+uc997sriZ+XbLICFJ/iFPtvgBITrMsy7p93ojn384x8voKMN+QMacvmG5kNbfvSjH10AI38c8ldP6qTmddpEXUfiJl79XrhvhaHXXme2/AHU8k6d4Ic/6dS/75KO+9pJL8/+7CgKAG+116YDLI0UY/IPREA98xmrH/SgB61sxauCwqy6QsI8DK0r5i/+4i9Kd0v3TbdSun1Ci5noyD+BOIlLnf/oRz9a1G/gByyAwDQ6Juka8ixN9Pvn0w1zqgytCi9Uunvg7Z81ZZ1Gh3CNRwP3T68r0Xcpq0NGAFYab9KMP6QMi8YFWMpX7zi63oAlP7yt6xufaTQE1NIidT2r3aW8eBegVzd47k+HgVua2hPXd3nPhQ736DJp12lVtG9dPd07aSfPZfrqWvo0rnve857lTwzteIQemn/KN48faTe6qW9+85tLGn3lXiRsUwKWyglA8P0T0awOOeSQstI/9hGM6qskDNJgovXwMf7QQw/tGBf9WwAj6WJ+36Vi5J0G7BvfPvvZzy6nwgARjTf59NGxrDDlBIxsXAz4Gm66KHe9611L40UHNy3P8GQIYKWhTUtzmeEBLH8IAar46sf92F1CeWgT2ganzgkpIWNbpGHiMb5M403eaXPAhPa9xx57FLDyJwGEUi5+3yU87R4deHLmmWeW/ex1raWdth3Nepl1kbSURTtnf7Uv/jve8Y7SZceXN73pTUXT1DaVcxo/khb/EglYaZwqLKBCI3ryk59c1qOpIG6ecGJkmEmNp5kxTqp8IEWDS8PsazTi5B+OGs5m8LCHPazYCqQr/0Urqq60offy0TgBDUewHcRA2zRU7WBSGpZ483jifQOsfpDQBtIuUvemB3zwgx8s9ipgpR4IJj5OE1Dh2gVH2J3L6IxGaWlvASvtexZg+UPS/oCcgY4b3OAGJT31l/YXeoa2qUXjKwsnT9oWG+bb3/72IkO2O48czmt7ye8SC1gajApVYUaODM/q/2oAtCsVxam4MKP2MVA8PgP2ne985yLc0awChrQnrq/hCPNvK65Tgu5973sXsIh2p0Gm4bqv81/2vXKm8UQQHE5rVIYNLV2DWXT4Hr0NsKYDlrrW9gCLPzSHrRikwV/CiYdpd9N4HT7jtUGYV7ziFSU96XIu+QS4Zv1Z+nO1lQ9zgPzS3vhx6Fp2e0t68kg5tRugrUxA3OG03nHKnG9m+ZdIwFKRGoxKpVmZJ+IQVt0vjUUFEeC4PgZhoPc2inOOnaFV/1gajPSjOckDiAmbvIQBLNMAAB7NRt4qLo1FPmmgfXQsI0xe8lT25M1nY7KvlNE8QC6eMk/LM3T6dlEblm+mpbfs8M3SJdRG/IkZeFDvuuIRTD4+qwt+Hw/wTFulWbHz0JC0sxqktC1OO++70OC7pz71qcUM4E8yeatjeaQ+p9HRR9vQMHnITx4cGtBilN3J2sIC5N7NS3/LA1Yqjp9/H/cAhQpt7yQGxjAF8zAmFcbHpPhhmHj+FW93u9sV7agGq4BW8qlpcJ8LkLEVqRzAp3LqfJPnZFjCQ5dn34a2+n3C4vel5dsYetNYEwao8AcI5dukNemHjqGAVac7eT+ZR/0srufaz30dL/cAy4gUQe2rE2HLtmEln7QJoKKt+JMy9YNhG6/Dd/QHrPgpn3BOXFoIO5Ptno0sRktPHmljyVt7yz1fPL0KXS+mjPQU5Jd8wrP4wnM/zZ8Xp++9MGXiInd4oa7YU4XV76blnfBLBGCpoHTV3HMq2XyNW9ziFqWxhFkpeO2HqXWjIsjmfGQIGQBKN40loBTfe/92iaPhsg8ZOtalTP7x6/xzL3/v+cLQ5V5Dy3c1rYmX7yffAek6vcRbrZ/0FwUsDdI3oSHfo1sjjeBOoyfxfS8OP0I++Y24hOA5z3lOEfK0gwhyhHpZgBVgqO2Y8tQOTcQ1/82fFJrRNklvnr0Lf1LXRhKPPfbYsmJBetLVvqa1PeHea3N8NL31rW8tdjNtYBFAECcu9PKF8ePQjc7Eqcsx+b13k/ESf7X+lgcsFaRSU1meDSFTx000o45r5NMaOsZhtPeYqzKMaNzylrfsTC6VFiDSKIDgtEYjXw0rdPiXP/HEE0ujlXYqnj+tsiLI6BBPY0uD8y4N2/s4aXnH1d/5nkve0/IcEp70FwUsXU5x0eFbtCgPWkNX6OyjI/nF9534fXG9s8EfDctMaPWgruLGACxpp+2pewf8AqvHPvaxhZaMAKu3PpqFpfz4Ij6BNIpsugng0a4M2ExrdymX/EMPu6T5WtIL//EbH6fREWAVJ/XDzzedAbw+AAAgAElEQVToFIdznzqRftIWP9+I535afqsN3/KApaIAioplNzAHxxynO93pThebjBnG9zGqrgwVYAj5ve99b2mM0tX45ZNGEa2q9jWW0KARn3XWWWXSnEpLY5A3OqbRksarAfiupotaT4NgPLV0wsxkZeR0OW2IZya0qRe6IWmoaVh95R4alrSkPcuGhU+0S/N9bIV8+OGHrzjPZvQbqlfGlLOPlghG4rEH+X6aMwr8oQ99qPzJ1PUVYecvU8NS3/LR/tS5MlvTyV6aEUG0T6tvZfZefQMXdXfEEUeURe3+KKXtT1L6+dOs21zuxVM2cXUFH/rQhxb+pr7Srvh9fBYmbsBIvNClrv2Bm3xstrk/ctMT0vaYTLRHA1r+MJQ76cwq9zQ65oVfIgBLw+FUGOO4IXuMDuMwP42/jyHeaTSYTeh1JTMpVEMIYLnn+q4aNE1fsCiZDWyywc6iQ9zQrLL96+qamqwKkMyfoupbb2gNluU2pllYW2bmspGXl73sZd1+++1XJigCLt8rW1+5h4ZFAOYBFv7gGedPJAKVOkI77RddyjutYeMVJw7eWBWQOpj05SX95CtP94mHJvfLBCx1Lh++P8oXvehFK3xXppRPGfp4LQ6gEg8gWHJj5YH0Ug4+HgJE9PddaOBoeCeffHJZiSHNtDX5cNPoQFtkJN/4g9R+rnGNa5TurYX1FkRrZ+Yzss2aU2gJFrOJaRdG4plgAJeejfYr376yrzZsywOWygVUnIWRwCrM0tAxja8CpjFPHP8i/ilMbKOCa/waSBqP+whAX6PxTqNh6AcaWZaSBpBGM40GFSguhx6+fy3lOeWUU8o/J7oAqcarvGhDJ1+j1oXwz6zhAk2r7Y0AKttqG0j9HdrRtQhghb7wDY34g15/KgBLehGUOp/cqzf5eeY7xks5pTnNqYfUXR1nDMBCi/xswWJwx6qF1B3A4JQv5enzlYu2efDBB6+AVehWDulzKfe0tuebrN8ENPLFv9RZeM2fRgdafEdWAA97oMED7SlOvaJFfXKetUdtT9vXHTcb33xDNkz86MtvtWFbBrAw3+JMW4xgjApKZWIW24FKp1Zjel1Bk8+pGD5HAIGVxZjSVhFpNH1+X6MRT+X5B6c2065SKXUjyb18vecL49LANTg2CBPraFBmSitrTQvh9zx5JZ5GpSx2ozCtwyxr2lbyS/6hcREfjb5bBLDQhkZXaE0YwNK9qMvfl3/yC80Aq6/M8hA+yyXOajQsdOh202QDUikLW6U/FJMyM/lWfC7tri5n3vHVtz+TAw88sKRdj0TXZQn/CjN7fsT1Z8ZmymwQ0Exeqes8owtNtLuEiePZiPEznvGMojUZoQxQ1vTUJNTh2h7Z0V7thGJrJJOts3ZSXvIJkPbV+bywLQNYCst+o1sA7dNwoLtGyE4SxhCovoLXlaPSVCwhlq7Klk7+1VTEkCuNBqACq+TVR4ewVF6E0bOKVAYzzxlOAU6EfggtdVzf665Q2dm9qOvyqoVpGo2T4aF5EcCqaajv8akGLGlyk3nlObR6xtvV1Eu+4a8GsPAKYOmCB1S0E/cGZvzZ4Yl4AYfQH1851K/30b6MItrfjGakHauraIc1zxa598d2l7vcpfASLdN4OtneyAC6mUPswqHrp1uqbOHbIvmLIz4XgCWjeGakHNCgS/4ByvBmiL+lAEsXyfYh/tWgOYYAL33nGHGjpfQxoW78Kkll0dp0naj1GO0fQtruh1ziqxzGyFTMtMabRlP76NGVBbx2FE35NOQhVxpLvkkDUi4g6Hh4grOafzn8Q7PyzTK6J+8+Hz1bEbAYmtWvNsfRIoxEm8WuHXHa3jSg0B7xThy8p0X7Y7I8imYOqFzR7vt4NyvsxS9+cbF1akfykFefDIQO78Xl/GnbVcHynZhD0LQaGUh7Ux7fa8dk1ACM6Rrym0XbNJoTvqUAiyZkmYLlBhoM4DKMjRGEKBU1rdFE4DQujYb6a9mCrS9UVP7l+Bg/5NKIGTwxVKXMAgR0cOLx0e0fjvqs26GLG+AcSsckYKUM0lFGuyjobmqkaExDWMQP/7YbYBEwW/AALG2DHZFWBMR06dTfPMDCO/wWl43IDhmM14CBUMepvyFAIS67JfqkG0Dg99Vp3qOFQ79JqsCKJh5ARs8QOrQzbax2SUNbJmNGUGPnw48++uaFbSnAomGxYwAqS25oW0b1CHuEX+OahuAalXgaDfCzbAEjAYSGg7H1P0OEfZ6vkjTiJz3pSSvGfY1hVqWkAfNpViapAqsMZ4eW/PPOoyHv6waTML7G551uplX7ujEa+LwGUr9HK95uN8BSlwYvAIz6seunUeCAfoR/WrvDQ22OY2Pyh2H6hXZXtzd1lHqq627WPQA1cseGpn5SR/y67nIf+SAH6DY4ZE2fdgGs5I8mYKO9DLnETxnynTDpoZOd2ZQLfJN/aBribynA0n0DWPrYDHp2bFR4feIwQIVMqywNRnz/KrbbNZKWfwGMTYUBC4xf9JKGbpw9f+SNllmNNzSKxxkxs1cSrVG+ASs+t5qrbmxpNNJ2D1yNAPm3m8arvkYkLtq3G2ApM22KVkXobD8dsApP1OMsXkqDUZ4d8bzzzit1kPrQftIOhXGLXrpbJ5xwQhlsSv5pX3116F0cebAve6ZSAJaA1Wq6hNpW7ZRBuSJP5MtWx8wJZLaPvnlhWw6wDB/TEHbeeeciOH2Vo+I0IBXCp1nFsXWZeGiSXwyoizaOOl4qRpiKcPgDAMXwRRpvGrqGbyKlbq7KrS95LOOSjrRDM3oNVwNYQhQe4aV/3WmNJjRvN8BSbhrWhz/84bKfmnlxeNbHJ+Fpk3jpGb+0xZvd7GYrG/CpA6Aw9KrbhHsjeQ6YZRNLvvH76POOIw+M7GQJLXW6Q2maFT9tLoCs22nP94zmh498fO6juQ7bMoClQEZVgM2Nb3zjlSHkujC5V3AVksrhazw0NCqpSW9U+/yjzGJ437tUQt5RdwGp9NEgv3nMTwVRyc2qX60mFRpm+eiVPt+/t3vdESNChA+v0INufvg46SuTONsRsGyJAhj84Sn/tPoVnj9KvOSYLMxrsomfwR38BxJDNKnUrzp0RRMz6mnKiu59aEo9Tdaf59CHpsc85jFl+kHSTB7L9EMnXz5kxfF0TCC0rMgKn+ujuQ7bMoCF0RqKboyCErJUUF2gVIrCRwjFpUk8/OEPL5NLNRgMJLRDK0v8MD8VS1MzS9m/XPKfpGnyGe3o23fffUvXVJpjXWgmINGy+JxRQ3PGgHkaMmGbx9ftCFgEnDaMP/N4lPfane+iycSorf2l6zW0ztUllz9bds8Y/tVb7SbbnGdyob7Z0qyY8MctvbEuaWtr6I3c8J2JQAEJvaGrj+Y6bEsBlkJpDDUY1YXJfeIRLJWjQhlJCSg1PEzEOIwccvl2ElzYnpwSIr/QMM9XUYDXpEONRqWOeaGZk08aqH97uwKgG88WoVm87QhY2p3BEX8ygGgWv7zT7nzDPmkrYF3+DO6oh4DW0DpXd5x2S1sxqzz0yBd9s+oRXcphDeBaj8tahHa0psupzNofZ7QakKM5bhbdebdlAAvBKVgEbFrlBAzEp8Kz1RjZMRIShkV4+Wu5VAjDp65d6JF/GNzno0sjs04LXRofusa60Ch9ZeXyrMHbEZP2qSFzffQmTLnQvh0BS91y6g0QceFL7SceHtkO2CCRP4ZouOoB3/lD/yxTf3zfa3dG+AJYaFI/s9qf99Yt0nCMtietsdqedEN3usHan1F+G2PiF3pn0Vzzd8sAFkZzCsgnXNMK6X0a1s1vfvOye4Num0r2L4eBNdoPrSwMz6XR2QqELSj0xK8ZXd8rg9nw5s6YoYyeOs2kvUxf+vW/egTG4IMhcdreLJ6iX7nwdrsBVkAoNpdZfMIfXUddQRvwGYHD67S3+MKG1nkEPz6D+9Oe9rSVXod6UU9omNYGgZp5izkMQlpoGftKz0aZ5Qlsnc8YXs6iuZadLQNYASoMj+AoZF2Y3Huff53b3OY2ZWeDdLvCsFQ6f8jl+7qCVYShWktekv88H31sCIaUzQNDw9DGO4TmaXHlac2XSYxZ+zitoStT+L7dACvlBlju89xXz94RQlrrcccdtzL6mz8LbSdtb6iGpR7r9gcMjTCTjT5a+sLQx0hvln5suENlYFp7GhIuT1N5yGlku4/eybAtA1gYrWBpLHxuskCe6zjsV7aqpQVRxTUSlZ5GM4TJkw3G82oBS1fVxFXdBY14NY13KO2T8fEBXyy+xadZPK35ut0AS9m1vbS/+H1tL/GAmxnkOfRTe6vbnjqv//gm62bWs+/UnT87qyPk2UdLX5g/eX/i5pQB0RoAZ+W57HfyNZfSH320rEXKsaUAC7MhsgKmYfRVSgBLHHGBg7VM+s0qKWCFadyQa7KCVwNYysGOYMIftT70DKFjGXGVxYZvzmo0wtkA61JTBV+daU/zNIK0S/H9CZjO8JnPfGZlzp+6DlAMbXup8wCWKQ1O9JZnnxz0halji6RNgAWg6FktHaFntb5958hBeIq2PprrsC0FWP61GLfNOYmBsS5MfZ+Gw6cR+O4tb3lLaTgqPJU19F9uGYClYlSUuVvRsDTi9b6UBWDalieAVfNw8h7dBHG7aVjKrYsHgAjXrLYnbuZEiefPkhYEXGJ0BhIBnaF1rs4CMlZqxHA9WVfTntWf4+Z0J8nAaukYSndffIBlmtIlVsMi5HbdtLJco8D8aRWj4QArccTV0Oyk8JGPfGRFo1H53JBL/BrkVqthqSjLY/6/nSemHzAwhLahcZVFl9CBCQQSr+bx1PvtCFjaHOBhUJ/V9tLuojUALd/YkyzaNKDghra9AFV8IKjuhmhY6s9gj6Vk0fSkt96Xsusu+6OMnC5Sji2jYUFhM8nt5mnHBstgFFADUQnug9TCABk/ThzMoUL7ZwI0KmpoZdWABbjYxaj89rFKvsl7GpiiBeMdZKpLtprGu4wGhn7dZHPIjGqFV9Po9h7t2xGw8MicJ9qJdpQ2F55of3V79D7twb05RzR87YWxG+9X0/Z841vtUN0BUe0+bS51mLwn61K4WeY2diQDq6FjSNtDZ1y+80zbtLdd5JY/SWvf85YBLJVuy1VgZWmNk0WMtCmofzHOvX+2aZWlYk0/MFnSv5N/GGAx5MLsNDTfY7ypCbS/GjCn0aASlMUsXyM8lilIcyMu5ZC/QxOAEJrR1tdQhOX9dgMs9WqHBUJulwV7YDFP4IN2h2dc2mIf/8RlO7KG0xSb1ZgA0vbUm3t/doceemihoa4f9TSt/Ql3QKv9/014BljcmBdaJ4HRqL25YOjGu1k01/zcUoBl1IXdxwRQBxmYEJrdPRUaWAU06kLmXhzqvO5YDpoYChZhvgoGdirCkguLOdNINFz38kvetR86zBGztGIoDctqXP5hnTCEb2iaxTv0p0zbDbCUmzkB2NCQdO9o1AErfMMf/rQ6986flBFZXUOANRQotJPamT1vrle6n+hMHdXtrb73PhthmguV9JbVpvrSkUdA1nvPejk2kyQroQ9tuZ/mbynAwmhHd6soCM0eZTaxpQYaChew6CtwhFJDs3LeDgv/9V/DVqpjdv4tUtn+qZxqAwwxXfr8WRWATgesOnFE45XWel8M/qZWACC8Cd19vBOmPOJtN8ACCNlxFGDRSi3C92dJ08KT8GYa78TR7abhmzBpSsJqACsCDwBoara+Vm8AMcLvflrbE65nst9++5U/2vzpjtX2tOuAFV9+fCssaHqheRrfJsO3DGCpBIBlspl/Bl0xvh0HcuS1ypjVcDQaDOIYmR/84AevGB+HVBiGc2k89peSVuYyoVVek8yun0OL7ikNbSMAi8YAuDV4PEHTtIaO9vB2uwEW/tCw7DiqrjmasW6iduQ93sXV9Zx777QLvLOywIEn/uiGXPmDjE/4rY9FQ9q1/NAzrR6FA1nLwpQhdqwhdAyNG3rzR+8P+phjjilzsMIz/jSaw0P+lgEsBcohFFkTqMKMcj3ykY8s/14p/LSCe5+KFYcR30hdVONFKiLMB1ju+f7pAE+W58hnXqORvwZMM7PHeQBwERrWGid0swdm4h6+oAntdQOp7/N+uwEWngAnky3VtT9LGj7Qse0MfuCf+sSjmme59z7tj2+kji12iJaVektb8axrZdddNMhffvPanvyBnINXxv6zrOUEvcCKdmmXkJgiIpPoCr+m+VsGsBQAsY6+sje5wnMajy1i2YMwYFZlTTLBPw3QOuOMM4pdTHoYrBG5X/RCg83d7BGfSsD8NKDJfAMO3rNr2Ovav3bUZf967qU7hI5p9EojZeJL1wiTHSzwa5K+ac/bFbDwA2DlEAr8VD9Ay1q+DLikXvv4pz2Ef977c2PD0S2PSUCa0h5S5wzv973vfVd2kkge04Az77V9M95paHW+2j96tBP+Wi/pSD/ARdkw0k+Wp9HYx7+EbXnAwghMsAkeNVdFTAMKDKqZ5J7dyW6SbElAI5WF0YteKsS/paPUNcy4Oq8wnC88gAbg/NvYbkP+bCTyjq98a70IAJBCp/LpitCuLIKt6Zp3H7q3m4aFL5OAhad46fRjG/uxT80CrLQF9S49bZSJg9GcEV7dRLCH1Dl7rtE2A0nSDg3JZ7JOtTe0iGfgwCEuehjJW7nkr/0NoWNaG9WW/QHjlTZoRH2PPfYo/JqkbZHnLQ9YYbC9fY466qiVrVf7Ch+Bq9+pWMbTgw46qGgdKu7/tnf3rLoTXRjHn29j6+ltxUa0Ur+AYi8iWojYWFgIoliIlYVwLKwESz+IH+Y8/LL5H8eQ3Lmzz9YbtxMIk5fJrDXXurLmJTMTwJ4xFh3U+vx/jQNEBulG0lGeY/fsXnxxEKfflHMmDEw+XaT9ops0EMZuDJBfS+nwbMLzWr+98/CbDuuuFsROdh9//NSjL9Zb+MEuPow4Gp/leXZnH3Y/Y3OFnDl5Pj7hXQ5rSwfX0kOods15+Leipi7nQr7dMf696CYtOkrPO6rrhLMOiz09967/6x0WIOyI4+uNgX2cxlaGM9b6HiNrGgKT42Gos8ZCMmsTmYpR05RTWstyTg86Iow45HNaaj13I9/v8hN5XpQ0dCstHe0Gz+rD2NNvS+f0ztH+l/5LKO97NSzcU8ux7pVaDltu4ZedxxfVMQ4YnmPwsU1hecZh4ak+oVdeeWVJi3yyRjmjPu61i8vJvv7668vHJ05rdJpn9NjjqDQqKGFk+M9/2mEBpOaO0IA4E05HIx0dM66mpNUhdaQiICKe2eihWeerG4dV7WlLNqLYxUOe4hu97+/G5JenhyKN9Ex4NYxBR/sl/bZ0dg1O9J01rLsalhcRTzSfzM1Tw95bZgh24ZdTgaVj/Zitr362KZZD8Is56ZQ2WVt2dN+9nIaC03P+BKSPrtq9Au4hNhhpcvrvoUKOg8T3Pf22dB6v/etrWIBFGqHSxstucCniKL0Acw04yAPM1157bVkFlOGQ4VqHQb4O0E8//XSZO4YQ9hHsjiMMmZHWNfr6wYbF1ZSaLTZ4X+LQnV5KTs3ATz75ZOnsTO41uKSzUHzPTod1xwvYwhjvFAgGM6utVBjAK4xzEOHYPSG7m5xvqopmEz6vuXeJh/Tw4Unzkpwjh8CG6eNYfDVuo+YNddA8HXVIdjp1jpfjcefFg4v+uV9//XVZg8uwn1H2yK1rj//1DmvrZfapV58QgBgmAu2BAsRKJnE//PDDxfmMjpAcxNjbxFU6mr5hRD4SVJrtyV1fR17PmSrjy6EmLqO394JECOfra+K677pjOllg0CRZA1W3XqC1HnvnnoUVjP7rTcItHuDAzz//vAy/wTt7heYepjjC5mo66/4stZPRlo63NnJ9bfz444+XdNjIvidzfT3emaTN4Wql1KclbXt6VPMfr6UXzrlObwU+nb766qtnL7300l/eh5zlWo9rzh+lwwKW5o8BeoyQQ+plXQPjPhAL9WcBeuwAz0BbhHGN0TgIRjIKWlt9JA3Ze/LTR3zk5RCMOTNnTbvfMsZ1XJITecbj0XEhlZqmPxX7YaxxOkpQL4X0yTvrTD1DfzpOh3VnA/iPm3M1CiPZTZDmrOAF62y8DrO5OL40+tLsR6vVcrKrcG/DO5znaAytudT5v5bfOT3oaxS8r8fWSFNr608/NVXTZ81B7wc9DPUwZMYvzUwY9yVUdwvuyeMRHumzFz5KhwVMAJsv6OsNQ3hR9xxGHr8SkZPj7DxvyARD2NcEHQmUARnMlB/L0OYcgH+tw2LQjIrADPTGG288+/rrr5dpGEik5qXPxMvRjiR//PHH8sXHn3gsWOgvwzrzm7oUYejieA+PPbKIT7fpsP5aaIw84Dg0561TpUYL571aFjwrKOEqnv6kjz76aFm6OicRt0Y5HbtXYaploXXQogB7dty6Hu+EeKtLRS1aepyPX4Lp47JogK4PTVehgdsqB8ZzGc/ow5MVJDi9nHa8i3OFW3ocXXvUDssXP1/+vLReMkDtARKoSONYc9ILzzkgoe1SKRepxNH3NP53bU/m+nqkzaE4z0lwopqaPkNb8lmTVwe6ZgBSvffee8va7Byl/CKdvTTKVy+IdO1rHS6dp8t0WH/WsNh9vakdGdfnA4zaxZ7DgnV2qNBkM1PNvv/+++fjo0antJblXk1HDk6t2pAVNrpky/W9+I8vHQvp5cu3gl/tzwojOvhxT5+ofq933nlneVd8tFLIypNn26UBg/IYJ9c6XHP+KB0Wp6FGxHEoFYwovlRNBiAwCx0jjhKCM+C0IsUWQZGoKjHZmmSacYYPXCLr2kA5hDFEvJwNnVStOS+1Js08jpWezt3zgtgjRaE0yStt1+1rHS6d9+x0WH86KXwYOeEYFzThreqgaX+JA9knW4jLfpyWH0Vwfjhl39vIw08OS3xTbjQNL9lyfS894hpbczhC7wNucUY4h2vtuOg6nfHTLg3p56Ck0U5OeV3rcM35o3RYSMOADOmTqoFxah7AXRsiABmnY3EcA15flP6shhogTiQVjucdC3Va/v7778tcwUod6WW4PeOM9ztOHzo57tnx/vra+lzcSjykKq+cj+PI1XNbYXpMh/Wnw9pyInhn13xSC/FywzfMYQvLMHcc3mHsGQWt+YsckQJYmjnEuBYH8d01oSaplXlNGUomWcnYCsnd2os76ti1dUhWabjnuGvp4VrvWu9DHLxGxqN1WIzLgJpz+qEMddCuHjv/gAi8NfAj2OJYHte6UX05kW7p57y2iJtcX/3UgpBGTU+aWzL/zmtkIkZk4bSqjanyI8+RXhFwOqx9hxUf1LI5DwN1rfSgP6vaBxxzYFs2Zwf32UXTSz8lvtlzTHHQtfXmnj4lnd4KaWnt8XxL/kNey0EVyptj3RbexThJR9ePZD9Kh8VgdZQzKPLopLaqA4fRSys8AgnAjG49JJ3aCIOUNnLa16TpvtLR6qj6nxhn7RjIP9LhyIhH96UfaYXyRA81P30TJo7nSC/p4p5np8O67LDiH+6p4VulVBOPwxptsedExBEXzgrZ7777buEZ3klTiN/kOBaOm2sKaquA+CU9/sb5I6489H15iTcd4573wQqs8hg33T+S/ygdFoNxUgzJcJyM/iy/hTcwFEA5Di/gFkiBXKnoywuH58ejEVI4OrCRNI4jlir6l19+ufRn1DxM5jVGKu59QzIQNnLIPz2s7W1kP0zUAGGxhwfZYSKdOQ5rbe278xwI/nEq+MFpGergE38FRlhu2bR7bMFOhrcYstC0sWQIx+NRI9zUj8ZZKmz1PZEt7S2Zf9e18lKoVqW2aVknXS3yOL6PR3o8WodVCYQwduet6tCvwiLPHkhArmQCtNLOfD/9WUo6pCgcydIxMpEtDkdnaMK4Quqe3Ie+Lh/yKi8ctdqUEfU+V5s9b20mpbB74u7Jj3TTYR3XsHJYccSQAxPsG3LgRd3D2nV73PNhxRIyPiDplojb1bZyXPFO6Jr7nJYhCb7w1fTfs+/fcb18CL1DltWBg6EQpqGFg1B+j3R4tA4LURiW0YQ5LWNHPv/882Wys9oToLZACugRUC+9T9VKLekmQ7i1RZpqe8jjzymaYIxX2lvyH/IaOdWulNgWnTPDnwPXMcxhNSvgEmlgUlr/RA2LvOwADwSH6ZltfJkdy+/bb7+96yz2cF9Pft7TgQx8iG9xEF/0gz558uT5V9w9Wa7jmr2WAL6Y/WDcU4WgNO1ta2yca2HY9aUZ+tJ8Q7hekv9Q9+KMfKjFW5mXs9JVYrlzfGq/xL30+UccFkCBZwc2ZU0UBl6kPAplygh0I79VjaW15ygy4DoUn/PQRNN+Vk2W7p7sgBxDNRFNKTUmpZ00r9VDPJ+d9S0oZeQfEdfyGce15GYsBs2oPdO9Qs/0fHE8wzmrWVl7qwGxiGzAaTWsUWbPFkq3GpjOes0UK0uww7WbuF5g+bd22ZauyRt18eKKa67dfTa4yyv5ajpvvfXWRbuPOjiG56uvvrq89PSXzlG+13HoAC8v6Tj5fC2rc/kddzb0xRr/vT8VmN6nS1t6yL9ZGN9+++3z/w9IkzxyhM4dx6W1Ls7j1jqO8/Rdp4kv3l3jt+Cve4b+ljv3TPZNj+SOYfKkY/qT549ssIfL//ZudD3QhAwHcIvQqx6nyFEITGNaGEyfQGkl45rQMwzMeIY6tExrhjjSwX2gIlzgV3u7Rn5xODoOz3iZN998c+nbUPNZG06ecxLkOo9UHa+NmtGF7ZyswYT+8GyohZoVDBjdx4gc1ihvjYW0OD3yENAwkfs4LAWG+ZYGGUorfdfy3COv/IpntVn8ObPFE885Nj7OKHTpr2VeOtcPZGIw/aUDuzOb+J5VQ2rIAXtfq4d4OGIws3dHwYfLZ/Ew1UYLweoQZnNoJrKn9NvjjRD+rse37FUc9+Am7JoQb9XqNQFVDnSlqFlxVnCg91jDkkuA+tgAAATbSURBVH78WtshvYS+uOvKkHd2uM926LAkGnEcU9p8KcLVcq7ZNVlMovzpp5+W+UoIcJY0QMq7m0LjBeAEVVWv0UEcTpYR9GepqXC+Z0kjPqPRX1XdkrE+QVtPiQwEynkJR7JEGGRg4MgSccT1jHscFeeqGfv06dNlKkWOKvmayNYQI1vexIf1Gg8YIbd74vj6pMQ+Q5pedKsa+DopLZ+3t+SRT54OWvftCH5GXryLe3BXwps6sidzne/OzS7wlbiX7ahms36RxPesbgFjq0y3gnfpXxPCwtdGE9n1o0qTPc9s6ZHj0kRTc4OHGrgaPw7hWdwbnZFjzih+xrucFd7hirzR1bAMBVTvHRu0czzZVt7YewsHcbRG3OMD1LCkcd/taodVdVqoKWLajFVCr90t5+pLn8xH/jNKy6TnGI0OSjv9IqbRXKuD5WMMBvzss8+WKq3aivTObL1AkacJowzx/vvvL31cHMhYu0KMiINQnTuOQN1HlpdffvnZu+++uzhV43i8KMnrpYMH2armJknLk/ztYaEPBQHNU/zhhx+ej8I+k3dx4f7NN98s6SR3S6b10ulDnvuIf7aQCutCtXO/SNePuSVz65p8a47CEW/u87J4pkICf803NdxlS97eNXi45+uaZnV2PIM/HGDI0amlwcN0ni+++GJZqYFD4LhyWiPP4l3OKe51rhBVAVCjMsqfY+ZYa8LiX3aAozzID/uyc/nbyj974aclpRXyL7IdOixKBlQKA0xmlNLX7uIztpcPAc6SVyY9AyyhppmSRtPmWh28bIhr8id9GP2sHnSvxPFsjoTzUwNQ5bcmlv4Gc7WU7jrqLfCn1FIztSOHKRiae9alN89LIaAWqsmr2ckhwZoMcuW9ly7Z8tFEVnnbwkJ+3RNPCDfpsOe1WxyAO5nShOeWPNeaYFs8dj+LdTLl3Q4LL+mezK3r8lszWhp0OJNv+LB3vBOyy5asS9eykTgwzAFei794Ix7yAQ+4wthXyN9+++3Zjz/+uDh0TWe8UvhpwmtV4J0xVL60c266BozI/+CDD5ZCzL8VOEA6luewH0OyyWX/0c57+Zd33Rd4J+/Suu926LAkDqj2+xjcs5Uo0pPGfZSWTi8sQPP612Z+1CMn4NqZLfnlofxIpzRdY1AG4nj87ECJZX6ZL3yq02bHW+tK34oF+hjfM9KXVnt4dz6GYeoZsvc2z6zT8cyZTRryRY5n03MvjVFPz3i5XDuzhaew9M7yRnzPqinYjvTe0k8asE4P5/A8s6W/sOeFZzbxPU92tqeTc/fs8sep+zilGYxfmvHWnrcSyC+//LLUEPHRsBj8VACxz8iR0kzfUX/H8AyP7m3lpXvSK/7ZfI/pHjqsMfI8nghMBCYCt0RgOqxboj9lTwQmAqcQmA7rFFwz8kRgInBLBKbDuiX6U/ZEYCJwCoHpsE7BNSNPBCYCt0RgOqxboj9lTwQmAqcQmA7rFFwz8kRgInBLBKbDuiX6U/ZEYCJwCoHpsE7BNSNPBCYCt0RgOqxboj9lTwQmAqcQmA7rFFwz8kRgInBLBKbDuiX6U/ZEYCJwCoHpsE7BNSNPBCYCt0RgOqxboj9lTwQmAqcQmA7rFFwz8kRgInBLBKbDuiX6U/ZEYCJwCoHpsE7BNSNPBCYCt0Tg/+A1NJCfhwysAAAAAElFTkSuQmCC;" parent="1" vertex="1">
          <mxGeometry x="1282.78" y="1292.5" width="50" height="55" as="geometry" />
        </mxCell>
        <mxCell id="y3kybt45RYq4H4rWvZ21-53" value="聚合根发生变化产生Event" style="text;html=1;align=center;verticalAlign=middle;resizable=0;points=[];autosize=1;strokeColor=none;" parent="1" vertex="1">
          <mxGeometry x="1068.1" y="380" width="150" height="20" as="geometry" />
        </mxCell>
        <mxCell id="y3kybt45RYq4H4rWvZ21-56" value="通过Command 类型获取指定handler" style="text;html=1;align=center;verticalAlign=middle;resizable=0;points=[];autosize=1;strokeColor=none;" parent="1" vertex="1">
          <mxGeometry x="733.32" y="453" width="210" height="20" as="geometry" />
        </mxCell>
        <mxCell id="y3kybt45RYq4H4rWvZ21-59" style="edgeStyle=orthogonalEdgeStyle;curved=1;rounded=0;orthogonalLoop=1;jettySize=auto;html=1;entryX=0;entryY=0.5;entryDx=0;entryDy=0;" parent="1" source="y3kybt45RYq4H4rWvZ21-57" target="y3kybt45RYq4H4rWvZ21-19" edge="1">
          <mxGeometry relative="1" as="geometry" />
        </mxCell>
        <mxCell id="y3kybt45RYq4H4rWvZ21-62" style="edgeStyle=orthogonalEdgeStyle;curved=1;rounded=0;orthogonalLoop=1;jettySize=auto;html=1;exitX=0.5;exitY=1;exitDx=0;exitDy=0;entryX=0.5;entryY=0;entryDx=0;entryDy=0;entryPerimeter=0;" parent="1" source="y3kybt45RYq4H4rWvZ21-57" target="y3kybt45RYq4H4rWvZ21-61" edge="1">
          <mxGeometry relative="1" as="geometry" />
        </mxCell>
        <mxCell id="y3kybt45RYq4H4rWvZ21-57" value="Event" style="rounded=1;whiteSpace=wrap;html=1;" parent="1" vertex="1">
          <mxGeometry x="1209.32" y="400" width="90" height="30" as="geometry" />
        </mxCell>
        <mxCell id="y3kybt45RYq4H4rWvZ21-60" value="将Event 保存到Event Store" style="text;html=1;align=center;verticalAlign=middle;resizable=0;points=[];autosize=1;strokeColor=none;" parent="1" vertex="1">
          <mxGeometry x="1250" y="310" width="160" height="20" as="geometry" />
        </mxCell>
        <mxCell id="y3kybt45RYq4H4rWvZ21-75" style="edgeStyle=orthogonalEdgeStyle;curved=1;rounded=0;orthogonalLoop=1;jettySize=auto;html=1;exitX=1;exitY=0.5;exitDx=0;exitDy=0;exitPerimeter=0;dashed=1;" parent="1" source="y3kybt45RYq4H4rWvZ21-61" target="y3kybt45RYq4H4rWvZ21-63" edge="1">
          <mxGeometry relative="1" as="geometry" />
        </mxCell>
        <mxCell id="y3kybt45RYq4H4rWvZ21-61" value="Event Queue" style="outlineConnect=0;dashed=0;verticalLabelPosition=bottom;verticalAlign=top;align=center;html=1;shape=mxgraph.aws3.queue;fillColor=#D9A741;gradientColor=none;" parent="1" vertex="1">
          <mxGeometry x="1330" y="510" width="50" height="29" as="geometry" />
        </mxCell>
        <mxCell id="y3kybt45RYq4H4rWvZ21-69" value="" style="edgeStyle=orthogonalEdgeStyle;curved=1;rounded=0;orthogonalLoop=1;jettySize=auto;html=1;" parent="1" source="y3kybt45RYq4H4rWvZ21-63" target="y3kybt45RYq4H4rWvZ21-68" edge="1">
          <mxGeometry relative="1" as="geometry">
            <Array as="points">
              <mxPoint x="1240" y="630" />
              <mxPoint x="1240" y="695" />
            </Array>
          </mxGeometry>
        </mxCell>
        <mxCell id="y3kybt45RYq4H4rWvZ21-63" value="Event handler" style="outlineConnect=0;fontColor=#232F3E;gradientColor=none;fillColor=#BC1356;strokeColor=none;dashed=0;verticalLabelPosition=bottom;verticalAlign=top;align=center;html=1;fontSize=12;fontStyle=0;aspect=fixed;pointerEvents=1;shape=mxgraph.aws4.eventbridge_custom_event_bus_resource;" parent="1" vertex="1">
          <mxGeometry x="1334.78" y="610" width="45.22" height="40" as="geometry" />
        </mxCell>
        <mxCell id="y3kybt45RYq4H4rWvZ21-65" value="将Event 发送到Event Queue" style="text;html=1;align=center;verticalAlign=middle;resizable=0;points=[];autosize=1;strokeColor=none;" parent="1" vertex="1">
          <mxGeometry x="1299.3200000000002" y="440" width="170" height="20" as="geometry" />
        </mxCell>
        <mxCell id="y3kybt45RYq4H4rWvZ21-67" value="事件处理者处理Event" style="text;html=1;align=center;verticalAlign=middle;resizable=0;points=[];autosize=1;strokeColor=none;" parent="1" vertex="1">
          <mxGeometry x="1400.22" y="574.5" width="130" height="20" as="geometry" />
        </mxCell>
        <mxCell id="y3kybt45RYq4H4rWvZ21-68" value="Read 库" style="aspect=fixed;html=1;points=[];align=center;image;fontSize=12;image=img/lib/mscae/Cache_Redis_Product.svg;rotation=0;" parent="1" vertex="1">
          <mxGeometry x="1032.3799999999999" y="680" width="35.72" height="30" as="geometry" />
        </mxCell>
        <mxCell id="y3kybt45RYq4H4rWvZ21-70" value="更新读库" style="text;html=1;align=center;verticalAlign=middle;resizable=0;points=[];autosize=1;strokeColor=none;" parent="1" vertex="1">
          <mxGeometry x="1170" y="700" width="60" height="20" as="geometry" />
        </mxCell>
        <mxCell id="5d9FrAUT32Lfvnw-ttjD-1" value="&lt;span style=&quot;font-size: 14px&quot;&gt;业务场景一： 数据量大，查询慢&lt;/span&gt;" style="dashed=0;html=1;fillColor=#F0F2F5;strokeColor=none;align=center;rounded=1;arcSize=10;fontColor=#3384FF;fontStyle=1;fontSize=11;shadow=0" vertex="1" parent="1">
          <mxGeometry x="537.5" y="130" width="195" height="20" as="geometry" />
        </mxCell>
        <mxCell id="5d9FrAUT32Lfvnw-ttjD-2" value="&lt;span style=&quot;font-size: 14px&quot;&gt;业务场景二： 超卖超买等库存处理异常&lt;/span&gt;" style="dashed=0;html=1;fillColor=#F0F2F5;strokeColor=none;align=center;rounded=1;arcSize=10;fontColor=#3384FF;fontStyle=1;fontSize=11;shadow=0" vertex="1" parent="1">
          <mxGeometry x="530.6" y="920" width="242.5" height="20" as="geometry" />
        </mxCell>
        <mxCell id="5d9FrAUT32Lfvnw-ttjD-4" value="&lt;font face=&quot;pingfang sc, microsoft yahei, helvetica neue, helvetica, arial, sans-serif&quot;&gt;&lt;span style=&quot;font-size: 14px ; background-color: rgb(255 , 255 , 255)&quot;&gt;&lt;b&gt;出现库存异常，基本是在资源竞争上产生问题的，在CQRS 架构下的三步措施&lt;br&gt;1. 一个Command 只修改一个聚合根，但如果一个Command 要修改多个聚合根，就去控制它们的事务&lt;br&gt;&lt;/b&gt;&lt;/span&gt;&lt;/font&gt;&lt;span style=&quot;color: rgb(77 , 77 , 77) ; font-family: , &amp;#34;sf ui text&amp;#34; , &amp;#34;arial&amp;#34; , &amp;#34;pingfang sc&amp;#34; , &amp;#34;hiragino sans gb&amp;#34; , &amp;#34;microsoft yahei&amp;#34; , &amp;#34;wenquanyi micro hei&amp;#34; , sans-serif , &amp;#34;simhei&amp;#34; , &amp;#34;simsun&amp;#34; ; font-size: 16px ; background-color: rgb(255 , 255 , 255)&quot;&gt;缩小事务的范围，确保一个事务一次只涉及一条记录的修改。也就是做到，只有单个聚合根的修改才是事务的, 通过Saga 来保证最终一致性&lt;br&gt;&lt;/span&gt;&lt;font face=&quot;pingfang sc, microsoft yahei, helvetica neue, helvetica, arial, sans-serif&quot;&gt;&lt;span style=&quot;font-size: 14px ; background-color: rgb(255 , 255 , 255)&quot;&gt;&lt;b&gt;&lt;br&gt;2. 对修改同一个聚合根的Command 进行排队，确保消费的顺序性&lt;br&gt;&lt;/b&gt;&lt;/span&gt;&lt;/font&gt;&lt;span style=&quot;color: rgb(77 , 77 , 77) ; font-family: , &amp;#34;sf ui text&amp;#34; , &amp;#34;arial&amp;#34; , &amp;#34;pingfang sc&amp;#34; , &amp;#34;hiragino sans gb&amp;#34; , &amp;#34;microsoft yahei&amp;#34; , &amp;#34;wenquanyi micro hei&amp;#34; , sans-serif , &amp;#34;simhei&amp;#34; , &amp;#34;simsun&amp;#34; ; font-size: 16px ; background-color: rgb(255 , 255 , 255)&quot;&gt;根据聚合根的ID的hashcode进行路由，发送到指定分区的kafka，让指定service/线程处理同一分区的Command&lt;br&gt;&lt;/span&gt;&lt;font face=&quot;pingfang sc, microsoft yahei, helvetica neue, helvetica, arial, sans-serif&quot;&gt;&lt;span style=&quot;font-size: 14px ; background-color: rgb(255 , 255 , 255)&quot;&gt;&lt;b&gt;&lt;br&gt;3. 保证Command 和Event 的幂等性 *&lt;br&gt;&lt;/b&gt;&lt;/span&gt;&lt;/font&gt;&lt;span style=&quot;color: rgb(77 , 77 , 77) ; font-family: , &amp;#34;sf ui text&amp;#34; , &amp;#34;arial&amp;#34; , &amp;#34;pingfang sc&amp;#34; , &amp;#34;hiragino sans gb&amp;#34; , &amp;#34;microsoft yahei&amp;#34; , &amp;#34;wenquanyi micro hei&amp;#34; , sans-serif , &amp;#34;simhei&amp;#34; , &amp;#34;simsun&amp;#34; ; font-size: 16px ; background-color: rgb(255 , 255 , 255)&quot;&gt;Command 的幂等：&lt;br&gt;我们要保证Command不能被重复执行&lt;br&gt;&lt;br&gt;Event 的幂等：&lt;/span&gt;&lt;font face=&quot;pingfang sc, microsoft yahei, helvetica neue, helvetica, arial, sans-serif&quot;&gt;&lt;span style=&quot;font-size: 14px ; background-color: rgb(255 , 255 , 255)&quot;&gt;&lt;b&gt;&lt;br&gt;&lt;/b&gt;&lt;/span&gt;&lt;/font&gt;" style="text;whiteSpace=wrap;html=1;" vertex="1" parent="1">
          <mxGeometry x="530.6" y="955" width="550" height="290" as="geometry" />
        </mxCell>
        <mxCell id="5d9FrAUT32Lfvnw-ttjD-8" value="② 发送 Create Command" style="text;html=1;align=center;verticalAlign=middle;resizable=0;points=[];autosize=1;strokeColor=none;" vertex="1" parent="1">
          <mxGeometry x="1100" y="1445" width="150" height="20" as="geometry" />
        </mxCell>
        <mxCell id="5d9FrAUT32Lfvnw-ttjD-11" value="&lt;span style=&quot;font-size: 14px&quot;&gt;用户提交订单&lt;/span&gt;" style="dashed=0;html=1;fillColor=#F0F2F5;strokeColor=none;align=center;rounded=1;arcSize=10;fontColor=#3384FF;fontStyle=1;fontSize=11;shadow=0" vertex="1" parent="1">
          <mxGeometry x="330" y="1470" width="60" height="20" as="geometry" />
        </mxCell>
        <mxCell id="5d9FrAUT32Lfvnw-ttjD-14" value="" style="rounded=1;whiteSpace=wrap;html=1;fillColor=#4a978d;" vertex="1" parent="1">
          <mxGeometry x="1339.5" y="1345" width="138.68" height="90" as="geometry" />
        </mxCell>
        <mxCell id="5d9FrAUT32Lfvnw-ttjD-15" value="broker 1" style="text;html=1;strokeColor=none;fillColor=none;align=center;verticalAlign=middle;whiteSpace=wrap;rounded=0;" vertex="1" parent="1">
          <mxGeometry x="1384.18" y="1350" width="54" height="15" as="geometry" />
        </mxCell>
        <mxCell id="5d9FrAUT32Lfvnw-ttjD-42" style="edgeStyle=orthogonalEdgeStyle;curved=1;rounded=0;orthogonalLoop=1;jettySize=auto;html=1;exitX=1;exitY=0.5;exitDx=0;exitDy=0;entryX=0;entryY=0.5;entryDx=0;entryDy=0;" edge="1" parent="1" source="5d9FrAUT32Lfvnw-ttjD-16" target="5d9FrAUT32Lfvnw-ttjD-41">
          <mxGeometry relative="1" as="geometry" />
        </mxCell>
        <mxCell id="5d9FrAUT32Lfvnw-ttjD-16" value="topic 1 -partition 1" style="rounded=1;whiteSpace=wrap;html=1;fillColor=#fff2cc;strokeColor=#d6b656;" vertex="1" parent="1">
          <mxGeometry x="1348.18" y="1370" width="110" height="20" as="geometry" />
        </mxCell>
        <mxCell id="5d9FrAUT32Lfvnw-ttjD-68" style="edgeStyle=orthogonalEdgeStyle;curved=1;rounded=0;orthogonalLoop=1;jettySize=auto;html=1;exitX=1;exitY=0.5;exitDx=0;exitDy=0;entryX=0;entryY=0.5;entryDx=0;entryDy=0;" edge="1" parent="1" source="5d9FrAUT32Lfvnw-ttjD-17" target="5d9FrAUT32Lfvnw-ttjD-44">
          <mxGeometry relative="1" as="geometry">
            <Array as="points">
              <mxPoint x="1490" y="1412" />
              <mxPoint x="1490" y="1493" />
            </Array>
          </mxGeometry>
        </mxCell>
        <mxCell id="5d9FrAUT32Lfvnw-ttjD-17" value="topic 2 -partition 1" style="rounded=1;whiteSpace=wrap;html=1;fillColor=#fad9d5;strokeColor=#ae4132;" vertex="1" parent="1">
          <mxGeometry x="1349.5" y="1401.5" width="110" height="20" as="geometry" />
        </mxCell>
        <mxCell id="5d9FrAUT32Lfvnw-ttjD-18" value="" style="rounded=1;whiteSpace=wrap;html=1;fillColor=#4a978d;" vertex="1" parent="1">
          <mxGeometry x="1339.18" y="1465" width="138.68" height="90" as="geometry" />
        </mxCell>
        <mxCell id="5d9FrAUT32Lfvnw-ttjD-19" value="broker 2" style="text;html=1;strokeColor=none;fillColor=none;align=center;verticalAlign=middle;whiteSpace=wrap;rounded=0;" vertex="1" parent="1">
          <mxGeometry x="1383.8600000000001" y="1470" width="54" height="15" as="geometry" />
        </mxCell>
        <mxCell id="5d9FrAUT32Lfvnw-ttjD-67" style="edgeStyle=orthogonalEdgeStyle;curved=1;rounded=0;orthogonalLoop=1;jettySize=auto;html=1;exitX=1;exitY=0.5;exitDx=0;exitDy=0;entryX=0;entryY=0.5;entryDx=0;entryDy=0;" edge="1" parent="1" source="5d9FrAUT32Lfvnw-ttjD-20" target="5d9FrAUT32Lfvnw-ttjD-41">
          <mxGeometry relative="1" as="geometry" />
        </mxCell>
        <mxCell id="5d9FrAUT32Lfvnw-ttjD-20" value="topic 1 -partition 2" style="rounded=1;whiteSpace=wrap;html=1;fillColor=#fff2cc;strokeColor=#d6b656;" vertex="1" parent="1">
          <mxGeometry x="1347.8600000000001" y="1490" width="110" height="20" as="geometry" />
        </mxCell>
        <mxCell id="5d9FrAUT32Lfvnw-ttjD-45" style="edgeStyle=orthogonalEdgeStyle;curved=1;rounded=0;orthogonalLoop=1;jettySize=auto;html=1;exitX=1;exitY=0.5;exitDx=0;exitDy=0;" edge="1" parent="1" source="5d9FrAUT32Lfvnw-ttjD-21" target="5d9FrAUT32Lfvnw-ttjD-44">
          <mxGeometry relative="1" as="geometry">
            <Array as="points">
              <mxPoint x="1560" y="1532" />
              <mxPoint x="1560" y="1493" />
            </Array>
          </mxGeometry>
        </mxCell>
        <mxCell id="5d9FrAUT32Lfvnw-ttjD-21" value="topic 2 -partition 2" style="rounded=1;whiteSpace=wrap;html=1;fillColor=#fad9d5;strokeColor=#ae4132;" vertex="1" parent="1">
          <mxGeometry x="1349.18" y="1521.5" width="110" height="20" as="geometry" />
        </mxCell>
        <mxCell id="5d9FrAUT32Lfvnw-ttjD-23" value="Provider 集群" style="text;html=1;align=center;verticalAlign=middle;resizable=0;points=[];autosize=1;strokeColor=none;" vertex="1" parent="1">
          <mxGeometry x="980.76" y="1640" width="90" height="20" as="geometry" />
        </mxCell>
        <mxCell id="5d9FrAUT32Lfvnw-ttjD-29" value="&lt;meta charset=&quot;utf-8&quot;&gt;&lt;span style=&quot;color: rgb(0, 0, 0); font-family: helvetica; font-size: 12px; font-style: normal; font-weight: 400; letter-spacing: normal; text-align: center; text-indent: 0px; text-transform: none; word-spacing: 0px; background-color: rgb(248, 249, 250); display: inline; float: none;&quot;&gt;车次管理服务&lt;/span&gt;" style="text;whiteSpace=wrap;html=1;" vertex="1" parent="1">
          <mxGeometry x="950" y="1300" width="100" height="30" as="geometry" />
        </mxCell>
        <mxCell id="5d9FrAUT32Lfvnw-ttjD-34" style="edgeStyle=orthogonalEdgeStyle;curved=1;rounded=0;orthogonalLoop=1;jettySize=auto;html=1;exitX=1;exitY=0.5;exitDx=0;exitDy=0;" edge="1" parent="1" source="5d9FrAUT32Lfvnw-ttjD-30" target="5d9FrAUT32Lfvnw-ttjD-16">
          <mxGeometry relative="1" as="geometry" />
        </mxCell>
        <mxCell id="5d9FrAUT32Lfvnw-ttjD-38" style="edgeStyle=orthogonalEdgeStyle;curved=1;rounded=0;orthogonalLoop=1;jettySize=auto;html=1;exitX=1;exitY=0.5;exitDx=0;exitDy=0;entryX=0;entryY=0.5;entryDx=0;entryDy=0;" edge="1" parent="1" source="5d9FrAUT32Lfvnw-ttjD-30" target="5d9FrAUT32Lfvnw-ttjD-20">
          <mxGeometry relative="1" as="geometry">
            <Array as="points">
              <mxPoint x="1290" y="1380" />
              <mxPoint x="1290" y="1500" />
            </Array>
          </mxGeometry>
        </mxCell>
        <mxCell id="5d9FrAUT32Lfvnw-ttjD-30" value="" style="ellipse;whiteSpace=wrap;html=1;aspect=fixed;fillColor=#FFFFFF;" vertex="1" parent="1">
          <mxGeometry x="1250" y="1366" width="28" height="28" as="geometry" />
        </mxCell>
        <mxCell id="5d9FrAUT32Lfvnw-ttjD-39" style="edgeStyle=orthogonalEdgeStyle;curved=1;rounded=0;orthogonalLoop=1;jettySize=auto;html=1;exitX=1;exitY=0.5;exitDx=0;exitDy=0;entryX=0;entryY=0.5;entryDx=0;entryDy=0;" edge="1" parent="1" source="5d9FrAUT32Lfvnw-ttjD-31" target="5d9FrAUT32Lfvnw-ttjD-17">
          <mxGeometry relative="1" as="geometry" />
        </mxCell>
        <mxCell id="5d9FrAUT32Lfvnw-ttjD-40" style="edgeStyle=orthogonalEdgeStyle;curved=1;rounded=0;orthogonalLoop=1;jettySize=auto;html=1;exitX=1;exitY=0.5;exitDx=0;exitDy=0;" edge="1" parent="1" source="5d9FrAUT32Lfvnw-ttjD-31" target="5d9FrAUT32Lfvnw-ttjD-21">
          <mxGeometry relative="1" as="geometry" />
        </mxCell>
        <mxCell id="5d9FrAUT32Lfvnw-ttjD-31" value="" style="ellipse;whiteSpace=wrap;html=1;aspect=fixed;fillColor=#FFFFFF;" vertex="1" parent="1">
          <mxGeometry x="1250" y="1517.5" width="28" height="28" as="geometry" />
        </mxCell>
        <mxCell id="5d9FrAUT32Lfvnw-ttjD-33" style="edgeStyle=orthogonalEdgeStyle;curved=1;rounded=0;orthogonalLoop=1;jettySize=auto;html=1;exitX=1;exitY=0.5;exitDx=0;exitDy=0;entryX=0;entryY=0.5;entryDx=0;entryDy=0;" edge="1" parent="1" source="5d9FrAUT32Lfvnw-ttjD-32" target="5d9FrAUT32Lfvnw-ttjD-30">
          <mxGeometry relative="1" as="geometry" />
        </mxCell>
        <mxCell id="5d9FrAUT32Lfvnw-ttjD-32" value="Provider 1" style="rounded=1;whiteSpace=wrap;html=1;strokeColor=#d6b656;fillColor=#FFF2CC;" vertex="1" parent="1">
          <mxGeometry x="980.75" y="1401.5" width="90" height="30" as="geometry" />
        </mxCell>
        <mxCell id="5d9FrAUT32Lfvnw-ttjD-37" style="edgeStyle=orthogonalEdgeStyle;curved=1;rounded=0;orthogonalLoop=1;jettySize=auto;html=1;exitX=1;exitY=0.5;exitDx=0;exitDy=0;entryX=0;entryY=0.5;entryDx=0;entryDy=0;" edge="1" parent="1" source="5d9FrAUT32Lfvnw-ttjD-36" target="5d9FrAUT32Lfvnw-ttjD-31">
          <mxGeometry relative="1" as="geometry" />
        </mxCell>
        <mxCell id="5d9FrAUT32Lfvnw-ttjD-36" value="Provider 2" style="rounded=1;whiteSpace=wrap;html=1;strokeColor=#d6b656;fillColor=#FAD9D5;" vertex="1" parent="1">
          <mxGeometry x="980.76" y="1487.5" width="90" height="30" as="geometry" />
        </mxCell>
        <mxCell id="5d9FrAUT32Lfvnw-ttjD-41" value="Consumer 1" style="rounded=1;whiteSpace=wrap;html=1;fillColor=#fff2cc;strokeColor=#d6b656;" vertex="1" parent="1">
          <mxGeometry x="1580" y="1410" width="110" height="35" as="geometry" />
        </mxCell>
        <mxCell id="5d9FrAUT32Lfvnw-ttjD-44" value="Consumer 2" style="rounded=1;whiteSpace=wrap;html=1;fillColor=#fad9d5;strokeColor=#ae4132;" vertex="1" parent="1">
          <mxGeometry x="1580" y="1475" width="110" height="35" as="geometry" />
        </mxCell>
        <mxCell id="5d9FrAUT32Lfvnw-ttjD-48" value="&lt;span style=&quot;color: rgb(0 , 0 , 0) ; font-family: &amp;#34;helvetica&amp;#34; ; font-size: 12px ; font-style: normal ; font-weight: 400 ; letter-spacing: normal ; text-align: center ; text-indent: 0px ; text-transform: none ; word-spacing: 0px ; background-color: rgb(248 , 249 , 250) ; display: inline ; float: none&quot;&gt;Command Handler&lt;/span&gt;" style="text;whiteSpace=wrap;html=1;" vertex="1" parent="1">
          <mxGeometry x="1570" y="1300" width="110" height="30" as="geometry" />
        </mxCell>
        <mxCell id="5d9FrAUT32Lfvnw-ttjD-49" value="" style="endArrow=none;dashed=1;html=1;dashPattern=1 3;strokeWidth=2;" edge="1" parent="1" source="5d9FrAUT32Lfvnw-ttjD-16">
          <mxGeometry width="50" height="50" relative="1" as="geometry">
            <mxPoint x="1470" y="1220" as="sourcePoint" />
            <mxPoint x="1480" y="1210" as="targetPoint" />
          </mxGeometry>
        </mxCell>
        <mxCell id="5d9FrAUT32Lfvnw-ttjD-50" value="" style="shape=process;whiteSpace=wrap;html=1;backgroundOutline=1;fillColor=#FAD9D5;gradientColor=none;" vertex="1" parent="1">
          <mxGeometry x="1310" y="1160" width="230" height="50" as="geometry" />
        </mxCell>
        <mxCell id="5d9FrAUT32Lfvnw-ttjD-51" value="" style="ellipse;whiteSpace=wrap;html=1;aspect=fixed;" vertex="1" parent="1">
          <mxGeometry x="1356.6799999999998" y="1169" width="27.5" height="27.5" as="geometry" />
        </mxCell>
        <mxCell id="5d9FrAUT32Lfvnw-ttjD-52" value="" style="ellipse;whiteSpace=wrap;html=1;aspect=fixed;" vertex="1" parent="1">
          <mxGeometry x="1401.25" y="1169" width="27.5" height="27.5" as="geometry" />
        </mxCell>
        <mxCell id="5d9FrAUT32Lfvnw-ttjD-53" value="" style="ellipse;whiteSpace=wrap;html=1;aspect=fixed;" vertex="1" parent="1">
          <mxGeometry x="1442.5" y="1169" width="27.5" height="27.5" as="geometry" />
        </mxCell>
        <mxCell id="5d9FrAUT32Lfvnw-ttjD-55" value="" style="endArrow=classic;html=1;" edge="1" parent="1">
          <mxGeometry width="50" height="50" relative="1" as="geometry">
            <mxPoint x="1363" y="1203" as="sourcePoint" />
            <mxPoint x="1473" y="1203" as="targetPoint" />
          </mxGeometry>
        </mxCell>
        <mxCell id="5d9FrAUT32Lfvnw-ttjD-58" style="edgeStyle=orthogonalEdgeStyle;curved=1;rounded=0;orthogonalLoop=1;jettySize=auto;html=1;exitX=0;exitY=0.5;exitDx=0;exitDy=0;entryX=1;entryY=0.75;entryDx=0;entryDy=0;" edge="1" parent="1" source="5d9FrAUT32Lfvnw-ttjD-57" target="5d9FrAUT32Lfvnw-ttjD-26">
          <mxGeometry relative="1" as="geometry">
            <Array as="points">
              <mxPoint x="1230" y="1777" />
              <mxPoint x="1230" y="1546" />
            </Array>
          </mxGeometry>
        </mxCell>
        <mxCell id="5d9FrAUT32Lfvnw-ttjD-59" value="数据Update完成" style="edgeLabel;html=1;align=center;verticalAlign=middle;resizable=0;points=[];" vertex="1" connectable="0" parent="5d9FrAUT32Lfvnw-ttjD-58">
          <mxGeometry x="-0.16" y="-28" relative="1" as="geometry">
            <mxPoint as="offset" />
          </mxGeometry>
        </mxCell>
        <mxCell id="5d9FrAUT32Lfvnw-ttjD-57" value="后续Event 事件处理（省略）" style="rounded=1;whiteSpace=wrap;html=1;" vertex="1" parent="1">
          <mxGeometry x="1430" y="1754" width="240" height="46" as="geometry" />
        </mxCell>
        <mxCell id="5d9FrAUT32Lfvnw-ttjD-63" style="edgeStyle=orthogonalEdgeStyle;curved=1;rounded=0;orthogonalLoop=1;jettySize=auto;html=1;exitX=0;exitY=0.25;exitDx=0;exitDy=0;" edge="1" parent="1" source="5d9FrAUT32Lfvnw-ttjD-62" target="y3kybt45RYq4H4rWvZ21-31">
          <mxGeometry relative="1" as="geometry" />
        </mxCell>
        <mxCell id="5d9FrAUT32Lfvnw-ttjD-64" value="websocket/ Email" style="edgeLabel;html=1;align=center;verticalAlign=middle;resizable=0;points=[];" vertex="1" connectable="0" parent="5d9FrAUT32Lfvnw-ttjD-63">
          <mxGeometry x="0.136" y="-17" relative="1" as="geometry">
            <mxPoint as="offset" />
          </mxGeometry>
        </mxCell>
        <mxCell id="5d9FrAUT32Lfvnw-ttjD-62" value="消息推送服务" style="rounded=1;whiteSpace=wrap;html=1;" vertex="1" parent="1">
          <mxGeometry x="635" y="1660" width="138.1" height="40" as="geometry" />
        </mxCell>
      </root>
    </mxGraphModel>
  </diagram>
</mxfile>
